<svg width="139" height="65" viewBox="0 0 139 65" fill="none" xmlns="http://www.w3.org/2000/svg">
<path d="M8.776 46.384C8.776 49.936 8.056 50.416 9.976 50.416C12.136 50.416 32.728 49.264 33.496 46.912C33.88 45.808 33.736 44.464 32.584 43.648C35.32 44.032 36.616 47.2 34.504 49.984C37.048 51.664 36.088 53.872 34.792 54.16C35.176 53.104 34.504 51.664 32.776 51.664C31.144 51.664 12.232 52.432 9.832 52.432C8.248 52.432 7.24 51.568 7.096 50.128C5.896 51.424 4.024 52.144 2.008 51.952C3.928 50.992 4.744 48.496 4.744 45.904V18.832C4.744 16.24 4.072 13.936 2.44 12.928C4.216 12.544 5.944 13.408 6.76 14.944C7.624 13.408 9.256 12.544 11.08 12.928C9.496 13.936 8.776 16.24 8.776 18.832V46.384ZM0.0399999 64.72V63.904H14.008V64.72H0.0399999ZM0.0399999 55.696V54.88H14.008V55.696H0.0399999ZM0.0399999 10V9.184H14.008V10H0.0399999ZM0.0399999 0.975996V0.159998H14.008V0.975996H0.0399999ZM0.76 58.48C0.712 57.568 1.336 57.04 2.008 57.04C1.912 56.8 2.104 56.368 2.392 56.32C2.44 57.04 2.728 57.28 2.824 57.376C3.736 58.096 3.4 60.16 3.928 60.976C4.648 62.128 5.752 62.368 6.376 61.888C5.848 61.792 5.8 61.36 6.136 61.12C6.952 61.408 7.192 59.344 5.56 59.488C6.184 58.864 6.904 59.056 7.24 59.632C7.384 59.296 7.528 58.96 7.912 59.152L8.056 58.96C7.72 59.104 7.528 58.912 7.288 58.48C7.912 58.672 7.96 58.192 8.728 58.144L8.92 57.904C8.296 58.096 7.624 57.856 7.288 57.04C8.44 57.424 9.304 56.464 9.736 57.136C10.072 56.896 10.36 56.8 10.648 56.944C11.656 56.608 12.904 57.184 13.288 58.576C13.72 60.064 12.424 61.12 11.464 60.112C13.096 60.256 12.856 58.192 12.04 58.48C11.704 58.24 11.752 57.808 12.28 57.712C11.656 57.232 10.552 57.472 9.832 58.624C9.304 59.44 9.64 61.504 8.728 62.224C8.632 62.32 8.344 62.56 8.296 63.28C8.008 63.232 7.816 62.8 7.912 62.56C7.48 62.56 7.096 62.368 6.856 61.984C6.328 62.656 5.464 62.896 4.744 62.656C4.456 62.8 4.168 62.704 3.832 62.464C3.4 63.136 2.536 62.176 1.384 62.56C1.72 61.744 2.392 61.504 3.016 61.696L2.824 61.456C2.056 61.408 2.008 60.928 1.384 61.12C1.624 60.688 1.816 60.496 2.152 60.64L2.008 60.448C1.528 60.688 1.432 60.112 1.24 59.728C1.912 59.872 2.056 59.968 2.008 60.304L2.2 60.448C2.104 60.208 2.2 59.968 2.584 59.632C2.248 60.256 3.016 60.64 3.064 61.312C3.304 61.6 3.592 61.84 3.832 62.032C3.736 61.936 3.64 61.792 3.592 61.648C3.112 60.688 3.448 58.72 2.584 58.768C2.392 57.808 0.856 58.24 1.72 59.392C1.192 59.392 0.808 59.008 0.76 58.48ZM0.76 3.856C1.144 2.464 2.392 1.888 3.4 2.224C3.688 2.08 3.976 2.17599 4.312 2.416C4.744 1.744 5.608 2.704 6.76 2.32C6.424 3.136 5.752 3.376 5.128 3.184L5.32 3.424C6.088 3.472 6.136 3.952 6.76 3.76C6.52 4.192 6.328 4.384 5.992 4.24L6.136 4.432C6.52 4.24 6.664 4.576 6.808 4.912C7.144 4.336 7.864 4.144 8.488 4.768C6.856 4.624 7.096 6.688 7.912 6.4C8.248 6.64 8.2 7.072 7.672 7.168C8.296 7.648 9.4 7.408 10.12 6.256C10.648 5.44 10.312 3.376 11.224 2.656C11.32 2.56 11.608 2.32 11.656 1.6C11.944 1.648 12.136 2.08 12.04 2.32C12.712 2.32 13.336 2.848 13.288 3.76C13.24 4.288 12.856 4.672 12.328 4.672C13.192 3.52 11.656 3.088 11.464 4.048C10.6 4 10.936 5.968 10.456 6.928C10.408 7.072 10.312 7.216 10.216 7.312C10.456 7.12 10.744 6.88 10.984 6.592C11.032 5.92 11.8 5.536 11.464 4.912C11.848 5.248 11.944 5.488 11.848 5.728L12.04 5.584C11.992 5.248 12.136 5.152 12.808 5.008C12.616 5.392 12.52 5.968 12.04 5.728L11.896 5.92C12.232 5.776 12.424 5.968 12.664 6.4C12.04 6.208 11.992 6.688 11.224 6.736L11.032 6.976C11.656 6.784 12.328 7.024 12.664 7.84C11.512 7.456 10.648 8.416 10.216 7.744C9.88 7.984 9.592 8.08 9.304 7.936C8.584 8.176 7.72 7.936 7.192 7.264C6.952 7.648 6.568 7.84 6.136 7.84C6.232 8.08 6.04 8.512 5.752 8.56C5.704 7.84 5.416 7.6 5.32 7.504C4.408 6.784 4.744 4.72 4.216 3.904C3.496 2.752 2.392 2.512 1.768 2.992C2.296 3.088 2.344 3.52 2.008 3.76C1.192 3.472 0.952 5.536 2.584 5.392C1.624 6.4 0.328 5.344 0.76 3.856ZM1.48 7.696C1.144 7.696 1.096 7.072 1.912 6.88C1.528 6.688 1.72 6.496 2.152 6.4C1.864 6.016 2.248 6.112 3.064 5.536C2.968 5.68 2.536 6.544 2.488 6.64C2.008 7.504 1.768 7.696 1.48 7.696ZM2.248 7.744C3.304 6.736 2.824 5.344 3.832 5.344C4.504 6.496 3.832 7.984 2.248 7.744ZM4.312 59.536C3.64 58.384 4.312 56.896 5.896 57.136C4.84 58.144 5.32 59.536 4.312 59.536ZM4.312 2.848C4.408 2.944 4.504 3.088 4.552 3.232C5.032 4.192 4.696 6.16 5.56 6.112C5.704 6.784 6.52 6.784 6.664 6.304C6.616 6.112 6.568 5.92 6.568 5.728L6.424 5.488C6.472 5.488 6.52 5.488 6.616 5.488C6.616 5.344 6.664 5.248 6.712 5.104C6.184 4.96 6.088 4.864 6.136 4.576L5.944 4.432C6.04 4.672 5.944 4.912 5.56 5.248C5.896 4.624 5.128 4.24 5.08 3.568C4.84 3.27999 4.552 3.04 4.312 2.848ZM5.08 59.344C5.176 59.2 5.608 58.336 5.656 58.24C6.136 57.376 6.376 57.184 6.664 57.184C7 57.184 7.048 57.808 6.232 58C6.616 58.192 6.424 58.384 5.992 58.48C6.28 58.864 5.896 58.768 5.08 59.344ZM7.336 59.824C7.384 59.968 7.432 60.064 7.432 60.208H7.624C7.576 60.304 7.528 60.352 7.48 60.448C7.48 60.64 7.432 60.832 7.384 61.024C7.528 61.504 8.344 61.504 8.488 60.832C9.352 60.88 9.016 58.912 9.496 57.952C9.544 57.808 9.64 57.664 9.736 57.568C9.496 57.76 9.208 58 8.968 58.288C8.92 58.96 8.152 59.344 8.488 59.968C8.104 59.632 8.008 59.392 8.104 59.152L7.912 59.296C7.96 59.584 7.864 59.68 7.336 59.824ZM7.384 2.464C7.672 2.464 7.912 2.656 8.392 3.52C8.44 3.616 8.872 4.48 8.968 4.624C8.152 4.048 7.768 4.144 8.056 3.76C7.624 3.664 7.432 3.472 7.816 3.27999C7 3.088 7.048 2.464 7.384 2.464ZM8.152 2.416C9.736 2.17599 10.408 3.664 9.736 4.816C8.728 4.816 9.208 3.424 8.152 2.416ZM10.216 60.064C11.224 60.064 10.744 61.456 11.8 62.464C10.216 62.704 9.544 61.216 10.216 60.064ZM10.984 60.256C11.8 60.832 12.184 60.736 11.896 61.12C12.328 61.216 12.52 61.408 12.136 61.6C12.952 61.792 12.904 62.416 12.568 62.416C12.28 62.416 12.04 62.224 11.56 61.36C11.512 61.264 11.08 60.4 10.984 60.256ZM25.2513 12.112C30.1953 12.112 36.3873 18.16 36.3873 28.048C36.3873 37.888 30.1953 43.936 25.2513 43.936C20.2113 43.936 14.0193 37.888 14.0193 28.048C14.0193 18.16 20.2113 12.112 25.2513 12.112ZM11.5712 64.72V63.904H38.8833V64.72H11.5712ZM11.5712 55.696V54.88H38.8833V55.696H11.5712ZM11.5712 10V9.184H38.8833V10H11.5712ZM11.5712 0.975996V0.159998H38.8833V0.975996H11.5712ZM12.2912 58.48C12.2432 57.568 12.8673 57.04 13.5393 57.04C13.4433 56.8 13.6353 56.368 13.9233 56.32C13.9713 57.04 14.2593 57.28 14.3553 57.376C15.2673 58.096 14.9313 60.16 15.4593 60.976C16.1793 62.128 17.2833 62.368 17.9073 61.888C17.3793 61.792 17.3313 61.36 17.6673 61.12C18.4833 61.408 18.7233 59.344 17.0913 59.488C17.9073 58.624 19.0113 59.296 19.0113 60.448C19.1553 60.304 19.3953 60.208 19.6353 60.208C18.7713 61.36 20.3073 61.792 20.4993 60.832C21.3633 60.88 21.0273 58.912 21.5073 57.952C21.5553 57.808 21.6513 57.664 21.7473 57.568C21.5073 57.76 21.2193 58 20.9793 58.288C20.9313 58.96 20.1633 59.344 20.4993 59.968C20.1153 59.632 20.0193 59.392 20.1153 59.152L19.9233 59.296C19.9713 59.632 19.8273 59.728 19.1553 59.872C19.3473 59.488 19.4433 58.912 19.9233 59.152L20.0673 58.96C19.7313 59.104 19.5393 58.912 19.2993 58.48C19.9233 58.672 19.9713 58.192 20.7393 58.144L20.9313 57.904C20.3073 58.096 19.6353 57.856 19.2993 57.04C20.4513 57.424 21.3153 56.464 21.7473 57.136C22.0833 56.896 22.3713 56.8 22.6593 56.944C23.6193 56.608 24.7713 57.136 25.2513 58.336C25.6833 57.136 26.8353 56.608 27.7953 56.944C28.0833 56.8 28.3713 56.896 28.7073 57.136C29.1393 56.464 30.0033 57.424 31.1553 57.04C30.8193 57.856 30.1473 58.096 29.5233 57.904L29.7153 58.144C30.4833 58.192 30.5313 58.672 31.1553 58.48C30.9153 58.912 30.7233 59.104 30.3873 58.96L30.5313 59.152C31.0113 58.912 31.1073 59.488 31.2993 59.872C30.6273 59.728 30.4833 59.632 30.5313 59.296L30.3393 59.152C30.4353 59.392 30.3393 59.632 29.9553 59.968C30.2913 59.344 29.5233 58.96 29.4753 58.288C29.2353 58 28.9473 57.76 28.7073 57.568C28.8033 57.664 28.8993 57.808 28.9473 57.952C29.4273 58.912 29.0913 60.88 29.9553 60.832C30.1473 61.792 31.6833 61.36 30.8193 60.208C31.0593 60.208 31.2993 60.304 31.4433 60.448C31.4433 59.296 32.5473 58.624 33.3633 59.488C31.7313 59.344 31.9713 61.408 32.7873 61.12C33.1233 61.36 33.0753 61.792 32.5473 61.888C33.1713 62.368 34.2753 62.128 34.9953 60.976C35.5233 60.16 35.1873 58.096 36.0993 57.376C36.1953 57.28 36.4833 57.04 36.5312 56.32C36.8193 56.368 37.0113 56.8 36.9153 57.04C37.5873 57.04 38.2113 57.568 38.1633 58.48C38.1153 59.008 37.7313 59.392 37.2032 59.392C38.0673 58.24 36.5312 57.808 36.3393 58.768C35.4753 58.72 35.8113 60.688 35.3313 61.648C35.2833 61.792 35.1873 61.936 35.0913 62.032C35.3313 61.84 35.6193 61.6 35.8593 61.312C35.9073 60.64 36.6753 60.256 36.3393 59.632C36.7233 59.968 36.8193 60.208 36.7233 60.448L36.9153 60.304C36.8673 59.968 37.0113 59.872 37.6833 59.728C37.4913 60.112 37.3953 60.688 36.9153 60.448L36.7712 60.64C37.1073 60.496 37.2993 60.688 37.5393 61.12C36.9153 60.928 36.8673 61.408 36.0993 61.456L35.9073 61.696C36.5312 61.504 37.2032 61.744 37.5393 62.56C36.3873 62.176 35.5233 63.136 35.0913 62.464C34.7553 62.704 34.4673 62.8 34.1793 62.656C33.3153 62.944 32.2593 62.56 31.7313 61.552C31.5873 62.176 31.1073 62.56 30.5313 62.56C30.6273 62.8 30.4353 63.232 30.1473 63.28C30.0993 62.56 29.8113 62.32 29.7153 62.224C28.8033 61.504 29.1393 59.44 28.6113 58.624C27.8913 57.472 26.7873 57.232 26.1633 57.712C26.6913 57.808 26.7393 58.24 26.4033 58.48C25.5873 58.192 25.3473 60.256 26.9793 60.112C26.3553 60.784 25.5393 60.544 25.2513 59.872C24.9153 60.544 24.0993 60.784 23.4753 60.112C25.1073 60.256 24.8672 58.192 24.0513 58.48C23.7153 58.24 23.7633 57.808 24.2913 57.712C23.6673 57.232 22.5633 57.472 21.8433 58.624C21.3153 59.44 21.6513 61.504 20.7393 62.224C20.6433 62.32 20.3553 62.56 20.3073 63.28C20.0193 63.232 19.8273 62.8 19.9233 62.56C19.3473 62.56 18.8672 62.176 18.7233 61.552C18.1953 62.56 17.1393 62.944 16.2753 62.656C15.9873 62.8 15.6992 62.704 15.3633 62.464C14.9313 63.136 14.0673 62.176 12.9153 62.56C13.2513 61.744 13.9233 61.504 14.5473 61.696L14.3553 61.456C13.5873 61.408 13.5393 60.928 12.9153 61.12C13.1553 60.688 13.3473 60.496 13.6833 60.64L13.5393 60.448C13.0593 60.688 12.9633 60.112 12.7713 59.728C13.4433 59.872 13.5873 59.968 13.5393 60.304L13.7313 60.448C13.6353 60.208 13.7313 59.968 14.1152 59.632C13.7793 60.256 14.5473 60.64 14.5953 61.312C14.8353 61.6 15.1233 61.84 15.3633 62.032C15.2673 61.936 15.1713 61.792 15.1233 61.648C14.6433 60.688 14.9793 58.72 14.1152 58.768C13.9233 57.808 12.3872 58.24 13.2513 59.392C12.7233 59.392 12.3392 59.008 12.2912 58.48ZM12.2912 3.856C12.6753 2.464 13.9233 1.888 14.9313 2.224C15.2193 2.08 15.5073 2.17599 15.8433 2.416C16.2753 1.744 17.1393 2.704 18.2913 2.32C17.9553 3.136 17.2833 3.376 16.6593 3.184L16.8513 3.424C17.6193 3.472 17.6673 3.952 18.2913 3.76C18.0513 4.192 17.8593 4.384 17.5233 4.24L17.6673 4.432C18.1473 4.192 18.2433 4.768 18.4353 5.152C17.7633 5.008 17.6193 4.912 17.6673 4.576L17.4753 4.432C17.5713 4.672 17.4753 4.912 17.0913 5.248C17.4273 4.624 16.6593 4.24 16.6113 3.568C16.3713 3.27999 16.0833 3.04 15.8433 2.848C15.9393 2.944 16.0353 3.088 16.0833 3.232C16.5633 4.192 16.2273 6.16 17.0913 6.112C17.2833 7.072 18.8193 6.64 17.9553 5.488C18.1953 5.488 18.4353 5.584 18.5793 5.728C18.5793 4.576 19.6833 3.904 20.4993 4.768C18.8672 4.624 19.1073 6.688 19.9233 6.4C20.2593 6.64 20.2113 7.072 19.6833 7.168C20.3073 7.648 21.4113 7.408 22.1313 6.256C22.6593 5.44 22.3233 3.376 23.2353 2.656C23.3313 2.56 23.6193 2.32 23.6673 1.6C23.9553 1.648 24.1473 2.08 24.0513 2.32C24.5793 2.32 25.0593 2.608 25.2032 3.184C25.3953 2.608 25.8753 2.32 26.4033 2.32C26.3073 2.08 26.4993 1.648 26.7873 1.6C26.8353 2.32 27.1233 2.56 27.2193 2.656C28.1313 3.376 27.7953 5.44 28.3233 6.256C29.0433 7.408 30.1473 7.648 30.7713 7.168C30.2433 7.072 30.1953 6.64 30.5313 6.4C31.3473 6.688 31.5873 4.624 29.9553 4.768C30.7713 3.904 31.8753 4.576 31.8753 5.728C32.0193 5.584 32.2593 5.488 32.4993 5.488C31.6353 6.64 33.1713 7.072 33.3633 6.112C34.2273 6.16 33.8913 4.192 34.3713 3.232C34.4193 3.088 34.5153 2.944 34.6113 2.848C34.3713 3.04 34.0833 3.27999 33.8433 3.568C33.7953 4.24 33.0273 4.624 33.3633 5.248C32.9793 4.912 32.8833 4.672 32.9793 4.432L32.7873 4.576C32.8353 4.912 32.6913 5.008 32.0193 5.152C32.2113 4.768 32.3073 4.192 32.7873 4.432L32.9313 4.24C32.5953 4.384 32.4033 4.192 32.1633 3.76C32.7873 3.952 32.8353 3.472 33.6033 3.424L33.7953 3.184C33.1713 3.376 32.4993 3.136 32.1633 2.32C33.3153 2.704 34.1793 1.744 34.6113 2.416C34.9473 2.17599 35.2353 2.08 35.5233 2.224C36.5312 1.888 37.7793 2.464 38.1633 3.856C38.5953 5.344 37.2993 6.4 36.3393 5.392C37.9713 5.536 37.7313 3.472 36.9153 3.76C36.5793 3.52 36.6273 3.088 37.1553 2.992C36.5312 2.512 35.4273 2.752 34.7073 3.904C34.1793 4.72 34.5153 6.784 33.6033 7.504C33.5073 7.6 33.2193 7.84 33.1713 8.56C32.8833 8.512 32.6913 8.08 32.7873 7.84C32.2113 7.84 31.7313 7.456 31.5873 6.832C31.0593 7.84 30.0033 8.224 29.1393 7.936C28.8513 8.08 28.5633 7.984 28.2273 7.744C27.7953 8.416 26.9313 7.456 25.7793 7.84C26.1153 7.024 26.7873 6.784 27.4113 6.976L27.2193 6.736C26.4513 6.688 26.4033 6.208 25.7793 6.4C26.0193 5.968 26.2113 5.776 26.5473 5.92L26.4033 5.728C25.9233 5.968 25.8273 5.392 25.6353 5.008C26.3073 5.152 26.4513 5.248 26.4033 5.584L26.5953 5.728C26.4993 5.488 26.5953 5.248 26.9793 4.912C26.6432 5.536 27.4113 5.92 27.4593 6.592C27.6993 6.88 27.9873 7.12 28.2273 7.312C28.1313 7.216 28.0353 7.072 27.9873 6.928C27.5073 5.968 27.8433 4 26.9793 4.048C26.7873 3.088 25.2513 3.52 26.1153 4.672C25.6833 4.672 25.3473 4.432 25.2513 4.048C25.1073 4.432 24.7713 4.672 24.3393 4.672C25.2032 3.52 23.6673 3.088 23.4753 4.048C22.6113 4 22.9473 5.968 22.4673 6.928C22.4193 7.072 22.3233 7.216 22.2273 7.312C22.4673 7.12 22.7553 6.88 22.9953 6.592C23.0433 5.92 23.8113 5.536 23.4753 4.912C23.8593 5.248 23.9553 5.488 23.8593 5.728L24.0513 5.584C24.0033 5.248 24.1473 5.152 24.8193 5.008C24.6273 5.392 24.5312 5.968 24.0513 5.728L23.9073 5.92C24.2433 5.776 24.4353 5.968 24.6753 6.4C24.0513 6.208 24.0033 6.688 23.2353 6.736L23.0433 6.976C23.6673 6.784 24.3393 7.024 24.6753 7.84C23.5233 7.456 22.6593 8.416 22.2273 7.744C21.8913 7.984 21.6033 8.08 21.3153 7.936C20.4513 8.224 19.3953 7.84 18.8672 6.832C18.7233 7.456 18.2433 7.84 17.6673 7.84C17.7633 8.08 17.5713 8.512 17.2833 8.56C17.2353 7.84 16.9473 7.6 16.8513 7.504C15.9393 6.784 16.2753 4.72 15.7473 3.904C15.0273 2.752 13.9233 2.512 13.2993 2.992C13.8273 3.088 13.8753 3.52 13.5393 3.76C12.7233 3.472 12.4832 5.536 14.1152 5.392C13.1553 6.4 11.8592 5.344 12.2912 3.856ZM13.0113 7.696C12.6753 7.696 12.6273 7.072 13.4433 6.88C13.0593 6.688 13.2513 6.496 13.6833 6.4C13.3953 6.016 13.7793 6.112 14.5953 5.536C14.4993 5.68 14.0673 6.544 14.0193 6.64C13.5393 7.504 13.2993 7.696 13.0113 7.696ZM13.7793 7.744C14.8353 6.736 14.3553 5.344 15.3633 5.344C16.0353 6.496 15.3633 7.984 13.7793 7.744ZM15.8433 59.536C15.1713 58.384 15.8433 56.896 17.4273 57.136C16.3713 58.144 16.8513 59.536 15.8433 59.536ZM16.6113 59.344C16.7073 59.2 17.1393 58.336 17.1873 58.24C17.6673 57.376 17.9073 57.184 18.1953 57.184C18.5312 57.184 18.5793 57.808 17.7633 58C18.1473 58.192 17.9553 58.384 17.5233 58.48C17.8113 58.864 17.4273 58.768 16.6113 59.344ZM18.8193 28.048C18.8193 34.96 21.1233 42.064 25.2513 42.064C29.3313 42.064 31.6353 34.96 31.6353 28.048C31.6353 21.136 29.3313 13.984 25.2513 13.984C21.1233 13.984 18.8193 21.136 18.8193 28.048ZM19.3953 2.464C19.6833 2.464 19.9233 2.656 20.4033 3.52C20.4513 3.616 20.8833 4.48 20.9793 4.624C20.1633 4.048 19.7793 4.144 20.0673 3.76C19.6353 3.664 19.4433 3.472 19.8273 3.27999C19.0113 3.088 19.0593 2.464 19.3953 2.464ZM20.1633 2.416C21.7473 2.17599 22.4193 3.664 21.7473 4.816C20.7393 4.816 21.2193 3.424 20.1633 2.416ZM22.2273 60.064C23.2353 60.064 22.7553 61.456 23.8113 62.464C22.2273 62.704 21.5553 61.216 22.2273 60.064ZM22.9953 60.256C23.8113 60.832 24.1953 60.736 23.9073 61.12C24.3393 61.216 24.5312 61.408 24.1473 61.6C24.9633 61.792 24.9153 62.416 24.5793 62.416C24.2913 62.416 24.0513 62.224 23.5713 61.36C23.5233 61.264 23.0913 60.4 22.9953 60.256ZM25.8753 62.416C25.5393 62.416 25.4913 61.792 26.3073 61.6C25.9233 61.408 26.1153 61.216 26.5473 61.12C26.2593 60.736 26.6432 60.832 27.4593 60.256C27.3633 60.4 26.9313 61.264 26.8833 61.36C26.4033 62.224 26.1633 62.416 25.8753 62.416ZM26.6432 62.464C27.6993 61.456 27.2193 60.064 28.2273 60.064C28.8993 61.216 28.2273 62.704 26.6432 62.464ZM28.7073 4.816C28.0353 3.664 28.7073 2.17599 30.2913 2.416C29.2353 3.424 29.7153 4.816 28.7073 4.816ZM29.4753 4.624C29.5713 4.48 30.0033 3.616 30.0513 3.52C30.5313 2.656 30.7713 2.464 31.0593 2.464C31.3953 2.464 31.4433 3.088 30.6273 3.27999C31.0113 3.472 30.8193 3.664 30.3873 3.76C30.6753 4.144 30.2913 4.048 29.4753 4.624ZM32.2593 57.184C32.5473 57.184 32.7873 57.376 33.2673 58.24C33.3153 58.336 33.7473 59.2 33.8433 59.344C33.0273 58.768 32.6433 58.864 32.9313 58.48C32.4993 58.384 32.3073 58.192 32.6913 58C31.8753 57.808 31.9233 57.184 32.2593 57.184ZM33.0273 57.136C34.6113 56.896 35.2833 58.384 34.6113 59.536C33.6033 59.536 34.0833 58.144 33.0273 57.136ZM35.0913 5.344C36.0993 5.344 35.6193 6.736 36.6753 7.744C35.0913 7.984 34.4193 6.496 35.0913 5.344ZM35.8593 5.536C36.6753 6.112 37.0593 6.016 36.7712 6.4C37.2032 6.496 37.3953 6.688 37.0113 6.88C37.8273 7.072 37.7793 7.696 37.4433 7.696C37.1553 7.696 36.9153 7.504 36.4353 6.64C36.3873 6.544 35.9553 5.68 35.8593 5.536ZM75.9078 12.832C77.5878 12.832 78.3078 11.392 77.8758 10.336C79.1718 10.624 80.0838 12.832 77.6358 14.512C79.7478 17.296 78.4518 20.464 75.7158 20.848C76.7718 20.032 77.0118 18.688 76.6278 17.584C75.9078 15.424 66.7398 14.704 50.8518 14.56V46.096C50.8518 48.64 51.5238 50.944 53.1558 52C51.3798 52.288 49.6518 51.424 48.8358 49.936C48.0678 51.424 46.3398 52.288 44.5158 52C46.0998 50.944 46.8198 48.64 46.8198 46.096V14.56C46.3878 14.512 40.5798 15.232 39.7638 17.584C39.4277 18.688 39.5718 20.032 40.7238 20.848C37.9878 20.464 36.6917 17.296 38.7558 14.512C36.3077 12.832 37.2677 10.624 38.5638 10.336C38.1318 11.392 38.8518 12.832 40.4838 12.832H75.9078ZM36.8837 64.72V63.904H56.3718V64.72H36.8837ZM36.8837 55.696V54.88H56.3718V55.696H36.8837ZM36.8837 10V9.184H56.3718V10H36.8837ZM36.8837 0.975996V0.159998H56.3718V0.975996H36.8837ZM37.6037 58.48C37.5557 57.568 38.1798 57.04 38.8518 57.04C38.7558 56.8 38.9478 56.368 39.2358 56.32C39.2838 57.04 39.5718 57.28 39.6678 57.376C40.5798 58.096 40.2438 60.16 40.7718 60.976C41.4918 62.128 42.5958 62.368 43.2198 61.888C42.6918 61.792 42.6438 61.36 42.9798 61.12C43.7958 61.408 44.0358 59.344 42.4038 59.488C43.0278 58.864 43.7478 59.056 44.0838 59.632C44.2278 59.296 44.3718 58.96 44.7558 59.152L44.8997 58.96C44.5638 59.104 44.3718 58.912 44.1318 58.48C44.7558 58.672 44.8038 58.192 45.5718 58.144L45.7638 57.904C45.1398 58.096 44.4678 57.856 44.1318 57.04C45.2838 57.424 46.1478 56.464 46.5798 57.136C46.9158 56.896 47.2038 56.8 47.4918 56.944C48.2118 56.704 49.0278 56.896 49.6038 57.52C50.1318 56.896 50.9478 56.704 51.6678 56.944C51.9557 56.8 52.2438 56.896 52.5798 57.136C53.0118 56.464 53.8758 57.424 55.0278 57.04C54.6918 57.856 54.0198 58.096 53.3958 57.904L53.5878 58.144C54.3558 58.192 54.4038 58.672 55.0278 58.48C54.7878 58.912 54.5958 59.104 54.2598 58.96L54.4038 59.152C54.8838 58.912 54.9798 59.488 55.1718 59.872C54.4998 59.728 54.3558 59.632 54.4038 59.296L54.2118 59.152C54.3078 59.392 54.2118 59.632 53.8278 59.968C54.1638 59.344 53.3958 58.96 53.3478 58.288C53.1078 58 52.8198 57.76 52.5798 57.568C52.6758 57.664 52.7718 57.808 52.8198 57.952C53.2998 58.912 52.9638 60.88 53.8278 60.832C54.0198 61.792 55.5558 61.36 54.6918 60.208C55.2198 60.208 55.6038 60.592 55.6518 61.12C55.6998 62.032 55.0758 62.56 54.4038 62.56C54.4998 62.8 54.3078 63.232 54.0198 63.28C53.9718 62.56 53.6838 62.32 53.5878 62.224C52.6758 61.504 53.0118 59.44 52.4838 58.624C51.7638 57.472 50.6598 57.232 50.0358 57.712C50.5638 57.808 50.6118 58.24 50.2758 58.48L50.0838 58.432C50.1318 58.48 50.1318 58.528 50.1318 58.576C50.2758 59.104 50.2278 59.584 50.0358 59.92C50.2278 60.064 50.4678 60.16 50.8518 60.112C50.4198 60.544 49.9398 60.592 49.6038 60.4C49.2198 60.592 48.7398 60.544 48.3078 60.112C48.6918 60.16 48.9318 60.064 49.1238 59.92C48.9318 59.584 48.8838 59.104 49.0278 58.576L49.0758 58.432C49.0278 58.432 48.9318 58.48 48.8838 58.48C48.5478 58.24 48.5958 57.808 49.1238 57.712C48.4998 57.232 47.3958 57.472 46.6758 58.624C46.1478 59.44 46.4838 61.504 45.5718 62.224C45.4758 62.32 45.1878 62.56 45.1398 63.28C44.8518 63.232 44.6598 62.8 44.7558 62.56C44.3238 62.56 43.9398 62.368 43.6998 61.984C43.1718 62.656 42.3078 62.896 41.5878 62.656C41.2998 62.8 41.0117 62.704 40.6758 62.464C40.2438 63.136 39.3798 62.176 38.2278 62.56C38.5638 61.744 39.2358 61.504 39.8598 61.696L39.6678 61.456C38.8998 61.408 38.8518 60.928 38.2278 61.12C38.4678 60.688 38.6598 60.496 38.9958 60.64L38.8518 60.448C38.3718 60.688 38.2758 60.112 38.0838 59.728C38.7558 59.872 38.8998 59.968 38.8518 60.304L39.0438 60.448C38.9478 60.208 39.0438 59.968 39.4277 59.632C39.0918 60.256 39.8598 60.64 39.9078 61.312C40.1478 61.6 40.4358 61.84 40.6758 62.032C40.5798 61.936 40.4838 61.792 40.4358 61.648C39.9558 60.688 40.2918 58.72 39.4277 58.768C39.2358 57.808 37.6997 58.24 38.5638 59.392C38.0358 59.392 37.6517 59.008 37.6037 58.48ZM37.6037 3.856C37.9878 2.464 39.2358 1.888 40.2438 2.224C40.5318 2.08 40.8198 2.17599 41.1558 2.416C41.5878 1.744 42.4518 2.704 43.6038 2.32C43.2678 3.136 42.5958 3.376 41.9718 3.184L42.1638 3.424C42.9318 3.472 42.9798 3.952 43.6038 3.76C43.3638 4.192 43.1718 4.384 42.8358 4.24L42.9798 4.432C43.3638 4.24 43.5078 4.576 43.6518 4.912C43.9878 4.336 44.7078 4.144 45.3318 4.768C43.6998 4.624 43.9398 6.688 44.7558 6.4C45.0918 6.64 45.0438 7.072 44.5158 7.168C45.1398 7.648 46.2438 7.408 46.9638 6.256C47.4918 5.44 47.1558 3.376 48.0678 2.656C48.1638 2.56 48.4518 2.32 48.4998 1.6C48.7878 1.648 48.9798 2.08 48.8838 2.32C49.1238 2.32 49.3638 2.416 49.6038 2.512C49.7958 2.416 50.0358 2.32 50.2758 2.32C50.1797 2.08 50.3718 1.648 50.6598 1.6C50.7078 2.32 50.9958 2.56 51.0918 2.656C52.0038 3.376 51.6678 5.44 52.1958 6.256C52.9158 7.408 54.0198 7.648 54.6438 7.168C54.1158 7.072 54.0678 6.64 54.4038 6.4C55.2198 6.688 55.4598 4.624 53.8278 4.768C54.7878 3.76 56.0838 4.816 55.6518 6.304C55.2678 7.696 54.0198 8.272 53.0118 7.936C52.7238 8.08 52.4358 7.984 52.0998 7.744C51.6678 8.416 50.8038 7.456 49.6518 7.84C49.9878 7.024 50.6598 6.784 51.2838 6.976L51.0918 6.736C50.3238 6.688 50.2758 6.208 49.6518 6.4C49.8918 5.968 50.0838 5.776 50.4198 5.92L50.2758 5.728C49.8438 5.92 49.7478 5.536 49.6038 5.152C49.4118 5.536 49.3158 5.92 48.8838 5.728L48.7398 5.92C49.0758 5.776 49.2678 5.968 49.5078 6.4C48.8838 6.208 48.8358 6.688 48.0678 6.736L47.8758 6.976C48.4998 6.784 49.1718 7.024 49.5078 7.84C48.3558 7.456 47.4918 8.416 47.0598 7.744C46.7238 7.984 46.4358 8.08 46.1478 7.936C45.4278 8.176 44.5638 7.936 44.0358 7.264C43.7958 7.648 43.4118 7.84 42.9798 7.84C43.0758 8.08 42.8838 8.512 42.5958 8.56C42.5478 7.84 42.2598 7.6 42.1638 7.504C41.2518 6.784 41.5878 4.72 41.0598 3.904C40.3398 2.752 39.2358 2.512 38.6118 2.992C39.1398 3.088 39.1878 3.52 38.8518 3.76C38.0358 3.472 37.7957 5.536 39.4277 5.392C38.4678 6.4 37.1717 5.344 37.6037 3.856ZM38.3238 7.696C37.9878 7.696 37.9398 7.072 38.7558 6.88C38.3718 6.688 38.5638 6.496 38.9958 6.4C38.7078 6.016 39.0918 6.112 39.9078 5.536C39.8118 5.68 39.3798 6.544 39.3318 6.64C38.8518 7.504 38.6118 7.696 38.3238 7.696ZM39.0918 7.744C40.1478 6.736 39.6678 5.344 40.6758 5.344C41.3478 6.496 40.6758 7.984 39.0918 7.744ZM41.1558 59.536C40.4838 58.384 41.1558 56.896 42.7398 57.136C41.6838 58.144 42.1638 59.536 41.1558 59.536ZM41.1558 2.848C41.2518 2.944 41.3478 3.088 41.3958 3.232C41.8758 4.192 41.5398 6.16 42.4038 6.112C42.5478 6.784 43.3638 6.784 43.5078 6.304C43.4598 6.112 43.4118 5.92 43.4118 5.728L43.2678 5.488C43.3158 5.488 43.3638 5.488 43.4598 5.488C43.4598 5.344 43.5078 5.248 43.5558 5.104C43.0278 4.96 42.9318 4.864 42.9798 4.576L42.7878 4.432C42.8838 4.672 42.7878 4.912 42.4038 5.248C42.7398 4.624 41.9718 4.24 41.9238 3.568C41.6838 3.27999 41.3958 3.04 41.1558 2.848ZM41.9238 59.344C42.0198 59.2 42.4518 58.336 42.4998 58.24C42.9798 57.376 43.2198 57.184 43.5078 57.184C43.8438 57.184 43.8918 57.808 43.0758 58C43.4598 58.192 43.2678 58.384 42.8358 58.48C43.1238 58.864 42.7398 58.768 41.9238 59.344ZM44.1797 59.824C44.2278 59.968 44.2758 60.064 44.2758 60.208H44.4678C44.4198 60.304 44.3718 60.352 44.3238 60.448C44.3238 60.64 44.2758 60.832 44.2278 61.024C44.3718 61.504 45.1878 61.504 45.3318 60.832C46.1958 60.88 45.8598 58.912 46.3398 57.952C46.3878 57.808 46.4838 57.664 46.5798 57.568C46.3398 57.76 46.0518 58 45.8118 58.288C45.7638 58.96 44.9958 59.344 45.3318 59.968C44.9478 59.632 44.8518 59.392 44.9478 59.152L44.7558 59.296C44.8038 59.584 44.7078 59.68 44.1797 59.824ZM44.2278 2.464C44.5158 2.464 44.7558 2.656 45.2358 3.52C45.2838 3.616 45.7158 4.48 45.8118 4.624C44.9958 4.048 44.6118 4.144 44.8997 3.76C44.4678 3.664 44.2758 3.472 44.6598 3.27999C43.8438 3.088 43.8918 2.464 44.2278 2.464ZM44.9958 2.416C46.5798 2.17599 47.2518 3.664 46.5798 4.816C45.5718 4.816 46.0518 3.424 44.9958 2.416ZM47.0598 60.064C48.0678 60.064 47.5878 61.456 48.6438 62.464C47.0598 62.704 46.3878 61.216 47.0598 60.064ZM47.0598 7.312C47.2998 7.12 47.5878 6.88 47.8278 6.592C47.8758 5.92 48.6438 5.536 48.3078 4.912C48.6918 5.248 48.7878 5.488 48.6918 5.728L48.8838 5.584C48.8358 5.248 48.9798 5.152 49.5078 5.056V5.008C49.5558 5.008 49.5558 5.008 49.5558 5.008H49.6518C49.6518 5.008 49.6518 5.008 49.6518 5.056C50.1797 5.152 50.3238 5.248 50.2758 5.584L50.4678 5.728C50.3718 5.488 50.4678 5.248 50.8518 4.912C50.5157 5.536 51.2838 5.92 51.3318 6.592C51.5718 6.88 51.8598 7.12 52.0998 7.312C52.0038 7.216 51.9078 7.072 51.8598 6.928C51.3798 5.968 51.7158 4 50.8518 4.048C50.7558 3.616 50.4198 3.472 50.1318 3.52V3.76C50.0838 4.048 49.9878 4.24 49.8438 4.432L49.9878 4.672C49.8438 4.672 49.6998 4.624 49.6038 4.576C49.4598 4.624 49.3158 4.672 49.1718 4.672L49.3158 4.432C49.1718 4.24 49.0758 4.048 49.0278 3.76V3.52C48.7398 3.472 48.4038 3.616 48.3078 4.048C47.4438 4 47.7798 5.968 47.2998 6.928C47.2518 7.072 47.1558 7.216 47.0598 7.312ZM47.8278 60.256C48.6438 60.832 49.0278 60.736 48.7398 61.12C49.1718 61.216 49.3638 61.408 48.9798 61.6C49.3158 61.696 49.5078 61.84 49.6038 61.984C49.6518 61.84 49.8438 61.696 50.1797 61.6C49.7958 61.408 49.9878 61.216 50.4198 61.12C50.1318 60.736 50.5157 60.832 51.3318 60.256C51.2358 60.4 50.8038 61.264 50.7558 61.36C50.2758 62.224 50.0358 62.416 49.7478 62.416C49.6998 62.416 49.6038 62.368 49.6038 62.32C49.5558 62.368 49.4598 62.416 49.4118 62.416C49.1238 62.416 48.8838 62.224 48.4038 61.36C48.3558 61.264 47.9238 60.4 47.8278 60.256ZM50.5157 62.464C51.5718 61.456 51.0918 60.064 52.0998 60.064C52.7718 61.216 52.0998 62.704 50.5157 62.464ZM52.5798 4.816C51.9078 3.664 52.5798 2.17599 54.1638 2.416C53.1078 3.424 53.5878 4.816 52.5798 4.816ZM53.3478 4.624C53.4438 4.48 53.8758 3.616 53.9238 3.52C54.4038 2.656 54.6438 2.464 54.9318 2.464C55.2678 2.464 55.3158 3.088 54.4998 3.27999C54.8838 3.472 54.6918 3.664 54.2598 3.76C54.5478 4.144 54.1638 4.048 53.3478 4.624ZM76.7553 48.784C77.6673 50.512 79.5393 50.848 81.2193 50.368C79.6353 52.576 75.5073 52.432 73.6353 49.36C73.4913 50.704 72.0513 52.24 70.1313 52C71.2833 51.136 71.9073 49.12 70.7553 47.104L66.9153 40.144C65.4753 41.152 63.9393 42.16 62.3073 43.216V46.048C62.3073 48.544 62.9313 50.848 64.6113 51.952C62.7873 52.24 61.0593 51.376 60.2913 49.84C59.4753 51.376 57.7473 52.24 55.9713 51.952C57.5553 50.848 58.2753 48.544 58.2753 46.048V25.216C58.2753 22.624 57.4593 20.08 55.5393 19.168C58.6593 18.784 61.3953 21.424 62.1153 24.256C63.6513 21.664 66.2433 19.552 69.2673 19.552C75.7953 19.552 77.7153 23.728 77.4753 27.52C77.1873 31.504 74.5473 34.48 70.4673 37.648L76.7553 48.784ZM53.5712 64.72V63.904H80.8833V64.72H53.5712ZM53.5712 55.696V54.88H80.8833V55.696H53.5712ZM53.5712 10V9.184H80.8833V10H53.5712ZM53.5712 0.975996V0.159998H80.8833V0.975996H53.5712ZM54.2912 58.48C54.2432 57.568 54.8673 57.04 55.5393 57.04C55.4433 56.8 55.6353 56.368 55.9233 56.32C55.9713 57.04 56.2593 57.28 56.3553 57.376C57.2673 58.096 56.9313 60.16 57.4593 60.976C58.1793 62.128 59.2833 62.368 59.9073 61.888C59.3793 61.792 59.3313 61.36 59.6673 61.12C60.4833 61.408 60.7233 59.344 59.0913 59.488C59.9073 58.624 61.0113 59.296 61.0113 60.448C61.1553 60.304 61.3953 60.208 61.6353 60.208C60.7713 61.36 62.3073 61.792 62.4993 60.832C63.3633 60.88 63.0273 58.912 63.5073 57.952C63.5553 57.808 63.6513 57.664 63.7473 57.568C63.5073 57.76 63.2193 58 62.9793 58.288C62.9313 58.96 62.1633 59.344 62.4993 59.968C62.1153 59.632 62.0193 59.392 62.1153 59.152L61.9233 59.296C61.9713 59.632 61.8273 59.728 61.1553 59.872C61.3473 59.488 61.4433 58.912 61.9233 59.152L62.0673 58.96C61.7313 59.104 61.5393 58.912 61.2993 58.48C61.9233 58.672 61.9713 58.192 62.7393 58.144L62.9313 57.904C62.3073 58.096 61.6353 57.856 61.2993 57.04C62.4513 57.424 63.3153 56.464 63.7473 57.136C64.0833 56.896 64.3713 56.8 64.6593 56.944C65.6193 56.608 66.7713 57.136 67.2513 58.336C67.6833 57.136 68.8353 56.608 69.7953 56.944C70.0833 56.8 70.3713 56.896 70.7073 57.136C71.1393 56.464 72.0033 57.424 73.1553 57.04C72.8193 57.856 72.1473 58.096 71.5233 57.904L71.7153 58.144C72.4833 58.192 72.5313 58.672 73.1553 58.48C72.9153 58.912 72.7233 59.104 72.3873 58.96L72.5313 59.152C73.0113 58.912 73.1073 59.488 73.2993 59.872C72.6273 59.728 72.4833 59.632 72.5313 59.296L72.3393 59.152C72.4353 59.392 72.3393 59.632 71.9553 59.968C72.2913 59.344 71.5233 58.96 71.4753 58.288C71.2353 58 70.9473 57.76 70.7073 57.568C70.8033 57.664 70.8993 57.808 70.9473 57.952C71.4273 58.912 71.0913 60.88 71.9553 60.832C72.1473 61.792 73.6833 61.36 72.8193 60.208C73.0593 60.208 73.2993 60.304 73.4433 60.448C73.4433 59.296 74.5473 58.624 75.3633 59.488C73.7313 59.344 73.9713 61.408 74.7873 61.12C75.1233 61.36 75.0753 61.792 74.5473 61.888C75.1713 62.368 76.2753 62.128 76.9953 60.976C77.5233 60.16 77.1873 58.096 78.0993 57.376C78.1953 57.28 78.4833 57.04 78.5312 56.32C78.8193 56.368 79.0113 56.8 78.9153 57.04C79.5873 57.04 80.2113 57.568 80.1633 58.48C80.1153 59.008 79.7313 59.392 79.2032 59.392C80.0673 58.24 78.5312 57.808 78.3393 58.768C77.4753 58.72 77.8113 60.688 77.3313 61.648C77.2833 61.792 77.1873 61.936 77.0913 62.032C77.3313 61.84 77.6193 61.6 77.8593 61.312C77.9073 60.64 78.6753 60.256 78.3393 59.632C78.7233 59.968 78.8193 60.208 78.7233 60.448L78.9153 60.304C78.8673 59.968 79.0113 59.872 79.6833 59.728C79.4913 60.112 79.3953 60.688 78.9153 60.448L78.7712 60.64C79.1073 60.496 79.2993 60.688 79.5393 61.12C78.9153 60.928 78.8673 61.408 78.0993 61.456L77.9073 61.696C78.5312 61.504 79.2032 61.744 79.5393 62.56C78.3873 62.176 77.5233 63.136 77.0913 62.464C76.7553 62.704 76.4673 62.8 76.1793 62.656C75.3153 62.944 74.2593 62.56 73.7313 61.552C73.5873 62.176 73.1073 62.56 72.5313 62.56C72.6273 62.8 72.4353 63.232 72.1473 63.28C72.0993 62.56 71.8113 62.32 71.7153 62.224C70.8033 61.504 71.1393 59.44 70.6113 58.624C69.8913 57.472 68.7873 57.232 68.1633 57.712C68.6913 57.808 68.7393 58.24 68.4033 58.48C67.5873 58.192 67.3473 60.256 68.9793 60.112C68.3553 60.784 67.5393 60.544 67.2513 59.872C66.9153 60.544 66.0993 60.784 65.4753 60.112C67.1073 60.256 66.8672 58.192 66.0513 58.48C65.7153 58.24 65.7633 57.808 66.2913 57.712C65.6673 57.232 64.5633 57.472 63.8433 58.624C63.3153 59.44 63.6513 61.504 62.7393 62.224C62.6433 62.32 62.3553 62.56 62.3073 63.28C62.0193 63.232 61.8273 62.8 61.9233 62.56C61.3473 62.56 60.8672 62.176 60.7233 61.552C60.1953 62.56 59.1393 62.944 58.2753 62.656C57.9873 62.8 57.6992 62.704 57.3633 62.464C56.9313 63.136 56.0673 62.176 54.9153 62.56C55.2513 61.744 55.9233 61.504 56.5473 61.696L56.3553 61.456C55.5873 61.408 55.5393 60.928 54.9153 61.12C55.1553 60.688 55.3473 60.496 55.6833 60.64L55.5393 60.448C55.0593 60.688 54.9633 60.112 54.7713 59.728C55.4433 59.872 55.5873 59.968 55.5393 60.304L55.7313 60.448C55.6353 60.208 55.7313 59.968 56.1152 59.632C55.7793 60.256 56.5473 60.64 56.5953 61.312C56.8353 61.6 57.1233 61.84 57.3633 62.032C57.2673 61.936 57.1713 61.792 57.1233 61.648C56.6433 60.688 56.9793 58.72 56.1152 58.768C55.9233 57.808 54.3872 58.24 55.2513 59.392C54.7233 59.392 54.3392 59.008 54.2912 58.48ZM54.2912 3.856C54.6753 2.464 55.9233 1.888 56.9313 2.224C57.2193 2.08 57.5073 2.17599 57.8433 2.416C58.2753 1.744 59.1393 2.704 60.2913 2.32C59.9553 3.136 59.2833 3.376 58.6593 3.184L58.8513 3.424C59.6193 3.472 59.6673 3.952 60.2913 3.76C60.0513 4.192 59.8593 4.384 59.5233 4.24L59.6673 4.432C60.1473 4.192 60.2433 4.768 60.4353 5.152C59.7633 5.008 59.6193 4.912 59.6673 4.576L59.4753 4.432C59.5713 4.672 59.4753 4.912 59.0913 5.248C59.4273 4.624 58.6593 4.24 58.6113 3.568C58.3713 3.27999 58.0833 3.04 57.8433 2.848C57.9393 2.944 58.0353 3.088 58.0833 3.232C58.5633 4.192 58.2273 6.16 59.0913 6.112C59.2833 7.072 60.8193 6.64 59.9553 5.488C60.1953 5.488 60.4353 5.584 60.5793 5.728C60.5793 4.576 61.6833 3.904 62.4993 4.768C60.8672 4.624 61.1073 6.688 61.9233 6.4C62.2593 6.64 62.2113 7.072 61.6833 7.168C62.3073 7.648 63.4113 7.408 64.1313 6.256C64.6593 5.44 64.3233 3.376 65.2353 2.656C65.3313 2.56 65.6193 2.32 65.6673 1.6C65.9553 1.648 66.1473 2.08 66.0513 2.32C66.5793 2.32 67.0593 2.608 67.2032 3.184C67.3953 2.608 67.8753 2.32 68.4033 2.32C68.3073 2.08 68.4993 1.648 68.7873 1.6C68.8353 2.32 69.1233 2.56 69.2193 2.656C70.1313 3.376 69.7953 5.44 70.3233 6.256C71.0433 7.408 72.1473 7.648 72.7713 7.168C72.2433 7.072 72.1953 6.64 72.5313 6.4C73.3473 6.688 73.5873 4.624 71.9553 4.768C72.7713 3.904 73.8753 4.576 73.8753 5.728C74.0193 5.584 74.2593 5.488 74.4993 5.488C73.6353 6.64 75.1713 7.072 75.3633 6.112C76.2273 6.16 75.8913 4.192 76.3713 3.232C76.4193 3.088 76.5153 2.944 76.6113 2.848C76.3713 3.04 76.0833 3.27999 75.8433 3.568C75.7953 4.24 75.0273 4.624 75.3633 5.248C74.9793 4.912 74.8833 4.672 74.9793 4.432L74.7873 4.576C74.8353 4.912 74.6913 5.008 74.0193 5.152C74.2113 4.768 74.3073 4.192 74.7873 4.432L74.9313 4.24C74.5953 4.384 74.4033 4.192 74.1633 3.76C74.7873 3.952 74.8353 3.472 75.6033 3.424L75.7953 3.184C75.1713 3.376 74.4993 3.136 74.1633 2.32C75.3153 2.704 76.1793 1.744 76.6113 2.416C76.9473 2.17599 77.2353 2.08 77.5233 2.224C78.5312 1.888 79.7793 2.464 80.1633 3.856C80.5953 5.344 79.2993 6.4 78.3393 5.392C79.9713 5.536 79.7313 3.472 78.9153 3.76C78.5793 3.52 78.6273 3.088 79.1553 2.992C78.5312 2.512 77.4273 2.752 76.7073 3.904C76.1793 4.72 76.5153 6.784 75.6033 7.504C75.5073 7.6 75.2193 7.84 75.1713 8.56C74.8833 8.512 74.6913 8.08 74.7873 7.84C74.2113 7.84 73.7313 7.456 73.5873 6.832C73.0593 7.84 72.0033 8.224 71.1393 7.936C70.8513 8.08 70.5633 7.984 70.2273 7.744C69.7953 8.416 68.9313 7.456 67.7793 7.84C68.1153 7.024 68.7873 6.784 69.4113 6.976L69.2193 6.736C68.4513 6.688 68.4033 6.208 67.7793 6.4C68.0193 5.968 68.2113 5.776 68.5473 5.92L68.4033 5.728C67.9233 5.968 67.8273 5.392 67.6353 5.008C68.3073 5.152 68.4513 5.248 68.4033 5.584L68.5953 5.728C68.4993 5.488 68.5953 5.248 68.9793 4.912C68.6432 5.536 69.4113 5.92 69.4593 6.592C69.6993 6.88 69.9873 7.12 70.2273 7.312C70.1313 7.216 70.0353 7.072 69.9873 6.928C69.5073 5.968 69.8433 4 68.9793 4.048C68.7873 3.088 67.2513 3.52 68.1153 4.672C67.6833 4.672 67.3473 4.432 67.2513 4.048C67.1073 4.432 66.7713 4.672 66.3393 4.672C67.2032 3.52 65.6673 3.088 65.4753 4.048C64.6113 4 64.9473 5.968 64.4673 6.928C64.4193 7.072 64.3233 7.216 64.2273 7.312C64.4673 7.12 64.7553 6.88 64.9953 6.592C65.0433 5.92 65.8113 5.536 65.4753 4.912C65.8593 5.248 65.9553 5.488 65.8593 5.728L66.0513 5.584C66.0033 5.248 66.1473 5.152 66.8193 5.008C66.6273 5.392 66.5312 5.968 66.0513 5.728L65.9073 5.92C66.2433 5.776 66.4353 5.968 66.6753 6.4C66.0513 6.208 66.0033 6.688 65.2353 6.736L65.0433 6.976C65.6673 6.784 66.3393 7.024 66.6753 7.84C65.5233 7.456 64.6593 8.416 64.2273 7.744C63.8913 7.984 63.6033 8.08 63.3153 7.936C62.4513 8.224 61.3953 7.84 60.8672 6.832C60.7233 7.456 60.2433 7.84 59.6673 7.84C59.7633 8.08 59.5713 8.512 59.2833 8.56C59.2353 7.84 58.9473 7.6 58.8513 7.504C57.9393 6.784 58.2753 4.72 57.7473 3.904C57.0273 2.752 55.9233 2.512 55.2993 2.992C55.8273 3.088 55.8753 3.52 55.5393 3.76C54.7233 3.472 54.4832 5.536 56.1152 5.392C55.1553 6.4 53.8592 5.344 54.2912 3.856ZM55.0113 7.696C54.6753 7.696 54.6273 7.072 55.4433 6.88C55.0593 6.688 55.2513 6.496 55.6833 6.4C55.3953 6.016 55.7793 6.112 56.5953 5.536C56.4993 5.68 56.0673 6.544 56.0193 6.64C55.5393 7.504 55.2993 7.696 55.0113 7.696ZM55.7793 7.744C56.8353 6.736 56.3553 5.344 57.3633 5.344C58.0353 6.496 57.3633 7.984 55.7793 7.744ZM57.8433 59.536C57.1713 58.384 57.8433 56.896 59.4273 57.136C58.3713 58.144 58.8513 59.536 57.8433 59.536ZM58.6113 59.344C58.7073 59.2 59.1393 58.336 59.1873 58.24C59.6673 57.376 59.9073 57.184 60.1953 57.184C60.5312 57.184 60.5793 57.808 59.7633 58C60.1473 58.192 59.9553 58.384 59.5233 58.48C59.8113 58.864 59.4273 58.768 58.6113 59.344ZM61.3953 2.464C61.6833 2.464 61.9233 2.656 62.4033 3.52C62.4513 3.616 62.8833 4.48 62.9793 4.624C62.1633 4.048 61.7793 4.144 62.0673 3.76C61.6353 3.664 61.4433 3.472 61.8273 3.27999C61.0113 3.088 61.0593 2.464 61.3953 2.464ZM62.1633 2.416C63.7473 2.17599 64.4193 3.664 63.7473 4.816C62.7393 4.816 63.2193 3.424 62.1633 2.416ZM62.3073 40.96C67.3953 37.984 71.7153 33.136 72.7233 28.576C73.4913 24.832 72.5793 21.424 68.6913 21.424C64.8033 21.424 62.3073 26.032 62.3073 29.344V40.96ZM64.2273 60.064C65.2353 60.064 64.7553 61.456 65.8113 62.464C64.2273 62.704 63.5553 61.216 64.2273 60.064ZM64.9953 60.256C65.8113 60.832 66.1953 60.736 65.9073 61.12C66.3393 61.216 66.5312 61.408 66.1473 61.6C66.9633 61.792 66.9153 62.416 66.5793 62.416C66.2913 62.416 66.0513 62.224 65.5713 61.36C65.5233 61.264 65.0913 60.4 64.9953 60.256ZM67.8753 62.416C67.5393 62.416 67.4913 61.792 68.3073 61.6C67.9233 61.408 68.1153 61.216 68.5473 61.12C68.2593 60.736 68.6432 60.832 69.4593 60.256C69.3633 60.4 68.9313 61.264 68.8833 61.36C68.4033 62.224 68.1633 62.416 67.8753 62.416ZM68.6432 62.464C69.6993 61.456 69.2193 60.064 70.2273 60.064C70.8993 61.216 70.2273 62.704 68.6432 62.464ZM70.7073 4.816C70.0353 3.664 70.7073 2.17599 72.2913 2.416C71.2353 3.424 71.7153 4.816 70.7073 4.816ZM71.4753 4.624C71.5713 4.48 72.0033 3.616 72.0513 3.52C72.5313 2.656 72.7713 2.464 73.0593 2.464C73.3953 2.464 73.4433 3.088 72.6273 3.27999C73.0113 3.472 72.8193 3.664 72.3873 3.76C72.6753 4.144 72.2913 4.048 71.4753 4.624ZM74.2593 57.184C74.5473 57.184 74.7873 57.376 75.2673 58.24C75.3153 58.336 75.7473 59.2 75.8433 59.344C75.0273 58.768 74.6433 58.864 74.9313 58.48C74.4993 58.384 74.3073 58.192 74.6913 58C73.8753 57.808 73.9233 57.184 74.2593 57.184ZM75.0273 57.136C76.6113 56.896 77.2833 58.384 76.6113 59.536C75.6033 59.536 76.0833 58.144 75.0273 57.136ZM77.0913 5.344C78.0993 5.344 77.6193 6.736 78.6753 7.744C77.0913 7.984 76.4193 6.496 77.0913 5.344ZM77.8593 5.536C78.6753 6.112 79.0593 6.016 78.7712 6.4C79.2032 6.496 79.3953 6.688 79.0113 6.88C79.8273 7.072 79.7793 7.696 79.4433 7.696C79.1553 7.696 78.9153 7.504 78.4353 6.64C78.3873 6.544 77.9553 5.68 77.8593 5.536ZM83.3534 18.832C83.3534 16.288 82.6334 13.984 81.0494 12.928C83.0654 12.496 85.0334 13.216 86.2334 14.848C87.2894 13.312 89.2094 12.208 92.1854 12.208C98.1854 12.208 103.225 17.008 103.225 24.064C103.225 34.048 98.0414 44.032 89.7854 54.88H105.481V55.696H78.6494V54.88H89.3054C87.9614 53.2 87.0974 51.376 86.6174 49.504C85.4654 51.52 83.3054 52.432 81.0494 51.952C82.6334 50.944 83.3534 48.64 83.3534 46.048V18.832ZM78.6494 64.72V63.904H105.481V64.72H78.6494ZM78.6494 10V9.184H105.481V10H78.6494ZM78.6494 0.975996V0.159998H105.481V0.975996H78.6494ZM79.3694 58.48C79.3214 57.568 79.9454 57.04 80.6174 57.04C80.5214 56.8 80.7134 56.368 81.0014 56.32C81.0494 57.04 81.3374 57.28 81.4334 57.376C82.3454 58.096 82.0094 60.16 82.5374 60.976C83.2574 62.128 84.3614 62.368 84.9854 61.888C84.4574 61.792 84.4094 61.36 84.7454 61.12C85.5614 61.408 85.8014 59.344 84.1694 59.488C84.9854 58.624 86.0894 59.296 86.0894 60.448C86.2334 60.304 86.4734 60.208 86.7134 60.208C85.8494 61.36 87.3854 61.792 87.5774 60.832C88.4414 60.88 88.1054 58.912 88.5854 57.952C88.6334 57.808 88.7294 57.664 88.8254 57.568C88.5854 57.76 88.2974 58 88.0574 58.288C88.0094 58.96 87.2414 59.344 87.5774 59.968C87.1934 59.632 87.0974 59.392 87.1934 59.152L87.0014 59.296C87.0494 59.632 86.9054 59.728 86.2334 59.872C86.4254 59.488 86.5214 58.912 87.0014 59.152L87.1454 58.96C86.8094 59.104 86.6174 58.912 86.3774 58.48C87.0014 58.672 87.0494 58.192 87.8174 58.144L88.0094 57.904C87.3854 58.096 86.7134 57.856 86.3774 57.04C87.5294 57.424 88.3934 56.464 88.8254 57.136C89.1614 56.896 89.4494 56.8 89.7374 56.944C90.5534 56.656 91.5134 56.992 92.0894 57.856C92.6174 56.992 93.5774 56.656 94.3934 56.944C94.6814 56.8 94.9694 56.896 95.3054 57.136C95.7374 56.464 96.6014 57.424 97.7534 57.04C97.4174 57.856 96.7454 58.096 96.1214 57.904L96.3134 58.144C97.0814 58.192 97.1294 58.672 97.7534 58.48C97.5134 58.912 97.3214 59.104 96.9854 58.96L97.1294 59.152C97.6094 58.912 97.7054 59.488 97.8974 59.872C97.2254 59.728 97.0814 59.632 97.1294 59.296L96.9374 59.152C97.0334 59.392 96.9374 59.632 96.5534 59.968C96.8894 59.344 96.1214 58.96 96.0734 58.288C95.8334 58 95.5454 57.76 95.3054 57.568C95.4014 57.664 95.4974 57.808 95.5454 57.952C96.0254 58.912 95.6894 60.88 96.5534 60.832C96.7454 61.792 98.2814 61.36 97.4174 60.208C97.6574 60.208 97.8974 60.304 98.0414 60.448C98.0414 59.296 99.1454 58.624 99.9614 59.488C98.3294 59.344 98.5694 61.408 99.3854 61.12C99.7214 61.36 99.6734 61.792 99.1454 61.888C99.7694 62.368 100.873 62.128 101.593 60.976C102.121 60.16 101.785 58.096 102.697 57.376C102.793 57.28 103.081 57.04 103.129 56.32C103.417 56.368 103.609 56.8 103.513 57.04C104.185 57.04 104.809 57.568 104.761 58.48C104.713 59.008 104.329 59.392 103.801 59.392C104.665 58.24 103.129 57.808 102.937 58.768C102.073 58.72 102.409 60.688 101.929 61.648C101.881 61.792 101.785 61.936 101.689 62.032C101.929 61.84 102.217 61.6 102.457 61.312C102.505 60.64 103.273 60.256 102.937 59.632C103.321 59.968 103.417 60.208 103.321 60.448L103.513 60.304C103.465 59.968 103.609 59.872 104.281 59.728C104.089 60.112 103.993 60.688 103.513 60.448L103.369 60.64C103.705 60.496 103.897 60.688 104.137 61.12C103.513 60.928 103.465 61.408 102.697 61.456L102.505 61.696C103.129 61.504 103.801 61.744 104.137 62.56C102.985 62.176 102.121 63.136 101.689 62.464C101.353 62.704 101.065 62.8 100.777 62.656C99.9134 62.944 98.8574 62.56 98.3294 61.552C98.1854 62.176 97.7054 62.56 97.1294 62.56C97.2254 62.8 97.0334 63.232 96.7454 63.28C96.6974 62.56 96.4094 62.32 96.3134 62.224C95.4014 61.504 95.7374 59.44 95.2094 58.624C94.4894 57.472 93.3854 57.232 92.7614 57.712C93.2894 57.808 93.3374 58.24 93.0014 58.48C92.7134 58.384 92.5214 58.528 92.4254 58.816C92.4734 59.056 92.4734 59.296 92.4254 59.488C92.5694 59.872 92.9054 60.16 93.5774 60.112C93.0494 60.64 92.4734 60.592 92.0894 60.208C91.6574 60.592 91.0814 60.64 90.5534 60.112C91.2254 60.16 91.5614 59.872 91.7054 59.488C91.6574 59.296 91.6574 59.056 91.7054 58.816C91.6094 58.528 91.4174 58.384 91.1294 58.48C90.7934 58.24 90.8414 57.808 91.3694 57.712C90.7454 57.232 89.6414 57.472 88.9214 58.624C88.3934 59.44 88.7294 61.504 87.8174 62.224C87.7214 62.32 87.4334 62.56 87.3854 63.28C87.0974 63.232 86.9054 62.8 87.0014 62.56C86.4254 62.56 85.9454 62.176 85.8014 61.552C85.2734 62.56 84.2174 62.944 83.3534 62.656C83.0654 62.8 82.7774 62.704 82.4414 62.464C82.0094 63.136 81.1454 62.176 79.9934 62.56C80.3294 61.744 81.0014 61.504 81.6254 61.696L81.4334 61.456C80.6654 61.408 80.6174 60.928 79.9934 61.12C80.2334 60.688 80.4254 60.496 80.7614 60.64L80.6174 60.448C80.1374 60.688 80.0414 60.112 79.8494 59.728C80.5214 59.872 80.6654 59.968 80.6174 60.304L80.8094 60.448C80.7134 60.208 80.8094 59.968 81.1934 59.632C80.8574 60.256 81.6254 60.64 81.6734 61.312C81.9134 61.6 82.2014 61.84 82.4414 62.032C82.3454 61.936 82.2494 61.792 82.2014 61.648C81.7214 60.688 82.0574 58.72 81.1934 58.768C81.0014 57.808 79.4654 58.24 80.3294 59.392C79.8014 59.392 79.4174 59.008 79.3694 58.48ZM79.3694 3.856C79.7534 2.464 81.0014 1.888 82.0094 2.224C82.2974 2.08 82.5854 2.17599 82.9214 2.416C83.3534 1.744 84.2174 2.704 85.3694 2.32C85.0334 3.136 84.3614 3.376 83.7374 3.184L83.9294 3.424C84.6974 3.472 84.7454 3.952 85.3694 3.76C85.1294 4.192 84.9374 4.384 84.6014 4.24L84.7454 4.432C85.2254 4.192 85.3214 4.768 85.5134 5.152C84.8414 5.008 84.6974 4.912 84.7454 4.576L84.5534 4.432C84.6494 4.672 84.5534 4.912 84.1694 5.248C84.5054 4.624 83.7374 4.24 83.6894 3.568C83.4494 3.27999 83.1614 3.04 82.9214 2.848C83.0174 2.944 83.1134 3.088 83.1614 3.232C83.6414 4.192 83.3054 6.16 84.1694 6.112C84.3614 7.072 85.8974 6.64 85.0334 5.488C85.2734 5.488 85.5134 5.584 85.6574 5.728C85.6574 4.576 86.7614 3.904 87.5774 4.768C85.9454 4.624 86.1854 6.688 87.0014 6.4C87.3374 6.64 87.2894 7.072 86.7614 7.168C87.3854 7.648 88.4894 7.408 89.2094 6.256C89.7374 5.44 89.4014 3.376 90.3134 2.656C90.4094 2.56 90.6974 2.32 90.7454 1.6C91.0334 1.648 91.2254 2.08 91.1294 2.32C91.4654 2.32 91.8494 2.464 92.0894 2.752C92.2814 2.464 92.6654 2.32 93.0014 2.32C92.9054 2.08 93.0974 1.648 93.3854 1.6C93.4334 2.32 93.7214 2.56 93.8174 2.656C94.7294 3.376 94.3934 5.44 94.9214 6.256C95.6414 7.408 96.7454 7.648 97.3694 7.168C96.8414 7.072 96.7934 6.64 97.1294 6.4C97.9454 6.688 98.1854 4.624 96.5534 4.768C97.3694 3.904 98.4734 4.576 98.4734 5.728C98.6174 5.584 98.8574 5.488 99.0974 5.488C98.2334 6.64 99.7694 7.072 99.9614 6.112C100.825 6.16 100.489 4.192 100.969 3.232C101.017 3.088 101.113 2.944 101.209 2.848C100.969 3.04 100.681 3.27999 100.441 3.568C100.393 4.24 99.6254 4.624 99.9614 5.248C99.5774 4.912 99.4814 4.672 99.5774 4.432L99.3854 4.576C99.4334 4.912 99.2894 5.008 98.6174 5.152C98.8094 4.768 98.9054 4.192 99.3854 4.432L99.5294 4.24C99.1934 4.384 99.0014 4.192 98.7614 3.76C99.3854 3.952 99.4334 3.472 100.201 3.424L100.393 3.184C99.7694 3.376 99.0974 3.136 98.7614 2.32C99.9134 2.704 100.777 1.744 101.209 2.416C101.545 2.17599 101.833 2.08 102.121 2.224C103.129 1.888 104.377 2.464 104.761 3.856C105.193 5.344 103.897 6.4 102.937 5.392C104.569 5.536 104.329 3.472 103.513 3.76C103.177 3.52 103.225 3.088 103.753 2.992C103.129 2.512 102.025 2.752 101.305 3.904C100.777 4.72 101.113 6.784 100.201 7.504C100.105 7.6 99.8174 7.84 99.7694 8.56C99.4814 8.512 99.2894 8.08 99.3854 7.84C98.8094 7.84 98.3294 7.456 98.1854 6.832C97.6574 7.84 96.6014 8.224 95.7374 7.936C95.4494 8.08 95.1614 7.984 94.8254 7.744C94.3934 8.416 93.5294 7.456 92.3774 7.84C92.7134 7.024 93.3854 6.784 94.0094 6.976L93.8174 6.736C93.0494 6.688 93.0014 6.208 92.3774 6.4C92.6174 5.968 92.8094 5.776 93.1454 5.92L93.0014 5.728C92.5214 5.968 92.4254 5.392 92.2334 5.008C92.9054 5.152 93.0494 5.248 93.0014 5.584L93.1934 5.728C93.0974 5.488 93.1934 5.248 93.5774 4.912C93.2414 5.536 94.0094 5.92 94.0574 6.592C94.2974 6.88 94.5854 7.12 94.8254 7.312C94.7294 7.216 94.6334 7.072 94.5854 6.928C94.1054 5.968 94.4414 4 93.5774 4.048C93.3854 3.088 91.8494 3.52 92.7134 4.672C92.4734 4.672 92.2334 4.576 92.0414 4.432C91.8974 4.576 91.6574 4.672 91.4174 4.672C92.2814 3.52 90.7454 3.088 90.5534 4.048C89.6894 4 90.0254 5.968 89.5454 6.928C89.4974 7.072 89.4014 7.216 89.3054 7.312C89.5454 7.12 89.8334 6.88 90.0734 6.592C90.1214 5.92 90.8894 5.536 90.5534 4.912C90.9374 5.248 91.0334 5.488 90.9374 5.728L91.1294 5.584C91.0814 5.248 91.2254 5.152 91.8974 5.008C91.7054 5.392 91.6094 5.968 91.1294 5.728L90.9854 5.92C91.3214 5.776 91.5134 5.968 91.7534 6.4C91.1294 6.208 91.0814 6.688 90.3134 6.736L90.1214 6.976C90.7454 6.784 91.4174 7.024 91.7534 7.84C90.6014 7.456 89.7374 8.416 89.3054 7.744C88.9694 7.984 88.6814 8.08 88.3934 7.936C87.5294 8.224 86.4734 7.84 85.9454 6.832C85.8014 7.456 85.3214 7.84 84.7454 7.84C84.8414 8.08 84.6494 8.512 84.3614 8.56C84.3134 7.84 84.0254 7.6 83.9294 7.504C83.0174 6.784 83.3534 4.72 82.8254 3.904C82.1054 2.752 81.0014 2.512 80.3774 2.992C80.9054 3.088 80.9534 3.52 80.6174 3.76C79.8014 3.472 79.5614 5.536 81.1934 5.392C80.2334 6.4 78.9374 5.344 79.3694 3.856ZM80.0894 7.696C79.7534 7.696 79.7054 7.072 80.5214 6.88C80.1374 6.688 80.3294 6.496 80.7614 6.4C80.4734 6.016 80.8574 6.112 81.6734 5.536C81.5774 5.68 81.1454 6.544 81.0974 6.64C80.6174 7.504 80.3774 7.696 80.0894 7.696ZM80.8574 7.744C81.9134 6.736 81.4334 5.344 82.4414 5.344C83.1134 6.496 82.4414 7.984 80.8574 7.744ZM82.9214 59.536C82.2494 58.384 82.9214 56.896 84.5054 57.136C83.4494 58.144 83.9294 59.536 82.9214 59.536ZM83.6894 59.344C83.7854 59.2 84.2174 58.336 84.2654 58.24C84.7454 57.376 84.9854 57.184 85.2734 57.184C85.6094 57.184 85.6574 57.808 84.8414 58C85.2254 58.192 85.0334 58.384 84.6014 58.48C84.8894 58.864 84.5054 58.768 83.6894 59.344ZM86.4734 2.464C86.7614 2.464 87.0014 2.656 87.4814 3.52C87.5294 3.616 87.9614 4.48 88.0574 4.624C87.2414 4.048 86.8574 4.144 87.1454 3.76C86.7134 3.664 86.5214 3.472 86.9054 3.27999C86.0894 3.088 86.1374 2.464 86.4734 2.464ZM87.2414 2.416C88.8254 2.17599 89.4974 3.664 88.8254 4.816C87.8174 4.816 88.2974 3.424 87.2414 2.416ZM87.3854 41.92C87.3854 46.528 88.3934 49.84 89.5934 51.568C94.0574 45.52 98.6174 39.568 98.6174 24.592C98.6174 17.872 95.4494 14.08 92.1374 14.08C88.7294 14.08 87.3854 16.528 87.3854 18.688V41.92ZM89.3054 60.064C90.3134 60.064 89.8334 61.456 90.8894 62.464C89.3054 62.704 88.6334 61.216 89.3054 60.064ZM90.0734 60.256C90.8894 60.832 91.2734 60.736 90.9854 61.12C91.4174 61.216 91.6094 61.408 91.2254 61.6C92.0414 61.792 91.9934 62.416 91.6574 62.416C91.3694 62.416 91.1294 62.224 90.6494 61.36C90.6014 61.264 90.1694 60.4 90.0734 60.256ZM92.4734 62.416C92.1374 62.416 92.0894 61.792 92.9054 61.6C92.5214 61.408 92.7134 61.216 93.1454 61.12C92.8574 60.736 93.2414 60.832 94.0574 60.256C93.9614 60.4 93.5294 61.264 93.4814 61.36C93.0014 62.224 92.7614 62.416 92.4734 62.416ZM93.2414 62.464C94.2974 61.456 93.8174 60.064 94.8254 60.064C95.4974 61.216 94.8254 62.704 93.2414 62.464ZM95.3054 4.816C94.6334 3.664 95.3054 2.17599 96.8894 2.416C95.8334 3.424 96.3134 4.816 95.3054 4.816ZM96.0734 4.624C96.1694 4.48 96.6014 3.616 96.6494 3.52C97.1294 2.656 97.3694 2.464 97.6574 2.464C97.9934 2.464 98.0414 3.088 97.2254 3.27999C97.6094 3.472 97.4174 3.664 96.9854 3.76C97.2734 4.144 96.8894 4.048 96.0734 4.624ZM98.8574 57.184C99.1454 57.184 99.3854 57.376 99.8654 58.24C99.9134 58.336 100.345 59.2 100.441 59.344C99.6254 58.768 99.2414 58.864 99.5294 58.48C99.0974 58.384 98.9054 58.192 99.2894 58C98.4734 57.808 98.5214 57.184 98.8574 57.184ZM99.6254 57.136C101.209 56.896 101.881 58.384 101.209 59.536C100.201 59.536 100.681 58.144 99.6254 57.136ZM101.689 5.344C102.697 5.344 102.217 6.736 103.273 7.744C101.689 7.984 101.017 6.496 101.689 5.344ZM102.457 5.536C103.273 6.112 103.657 6.016 103.369 6.4C103.801 6.496 103.993 6.688 103.609 6.88C104.425 7.072 104.377 7.696 104.041 7.696C103.753 7.696 103.513 7.504 103.033 6.64C102.985 6.544 102.553 5.68 102.457 5.536ZM115.538 28.672C115.538 21.04 122.882 13.312 129.026 13.312C129.698 13.312 130.322 13.408 130.946 13.504C134.066 14.224 136.082 13.024 135.698 11.2C137.522 12.064 137.282 15.088 135.218 16.192C135.65 16.768 135.938 17.488 136.082 18.256C136.514 20.416 135.074 22.24 133.394 22.24C134.354 17.92 132.194 15.184 129.314 15.184C124.226 15.184 120.338 19.84 120.098 27.856C121.49 27.856 127.346 27.808 128.786 27.376C130.466 26.8 131.186 24.976 130.082 23.104C133.682 24.4 132.962 27.424 131.234 28.72C132.962 30.016 133.682 32.56 130.082 33.952C131.186 31.984 130.466 30.688 128.786 30.16C127.346 29.632 121.538 29.584 120.098 29.584C120.434 37.456 124.85 42.064 128.834 42.064C131.714 42.064 134.354 39.328 133.394 35.008C135.074 35.008 136.514 36.832 136.082 39.04C135.554 42.16 131.714 43.936 128.546 43.936C122.402 43.936 115.538 36.304 115.538 28.672ZM101.426 64.72V63.904H138.866V64.72H101.426ZM101.426 55.696V54.88H138.866V55.696H101.426ZM101.426 10V9.184H138.866V10H101.426ZM101.426 0.975996V0.159998H138.866V0.975996H101.426ZM102.146 58.48C102.098 57.568 102.722 57.04 103.394 57.04C103.298 56.8 103.49 56.368 103.778 56.32C103.826 57.04 104.114 57.28 104.21 57.376C105.122 58.096 104.786 60.16 105.314 60.976C106.034 62.128 107.138 62.368 107.762 61.888C107.234 61.792 107.186 61.36 107.522 61.12C108.338 61.408 108.578 59.344 106.946 59.488C107.57 58.816 108.338 59.056 108.674 59.68C108.818 59.344 108.962 58.96 109.346 59.152L109.49 58.96C109.154 59.104 108.962 58.912 108.722 58.48C109.346 58.672 109.394 58.192 110.162 58.144L110.354 57.904C109.73 58.096 109.058 57.856 108.722 57.04C109.874 57.424 110.738 56.464 111.17 57.136C111.506 56.896 111.794 56.8 112.082 56.944C112.754 56.704 113.57 56.896 114.146 57.52C114.722 56.896 115.538 56.704 116.21 56.944C116.498 56.8 116.786 56.896 117.122 57.136C117.554 56.464 118.418 57.424 119.57 57.04C119.234 57.856 118.562 58.096 117.938 57.904L118.13 58.144C118.898 58.192 118.946 58.672 119.57 58.48C119.33 58.912 119.138 59.104 118.802 58.96L118.946 59.152C119.33 58.96 119.474 59.248 119.57 59.584C119.954 59.008 120.674 58.864 121.25 59.488C120.242 59.392 119.954 60.16 120.05 60.688C120.098 60.784 120.146 60.832 120.146 60.928C120.29 61.12 120.434 61.216 120.674 61.12C121.01 61.36 120.962 61.792 120.434 61.888C121.058 62.368 122.162 62.128 122.882 60.976C123.41 60.16 123.074 58.096 123.986 57.376C124.082 57.28 124.37 57.04 124.418 56.32C124.706 56.368 124.898 56.8 124.802 57.04C125.474 57.04 126.098 57.568 126.05 58.48C126.002 59.008 125.618 59.392 125.09 59.392C125.954 58.24 124.418 57.808 124.226 58.768C123.362 58.72 123.698 60.688 123.218 61.648C123.17 61.792 123.074 61.936 122.978 62.032C123.218 61.84 123.506 61.6 123.746 61.312C123.794 60.64 124.562 60.256 124.226 59.632C124.61 59.968 124.706 60.208 124.61 60.448L124.802 60.304C124.754 59.968 124.898 59.872 125.57 59.728C125.378 60.112 125.282 60.688 124.802 60.448L124.658 60.64C124.994 60.496 125.186 60.688 125.426 61.12C124.802 60.928 124.754 61.408 123.986 61.456L123.794 61.696C124.418 61.504 125.09 61.744 125.426 62.56C124.274 62.176 123.41 63.136 122.978 62.464C122.642 62.704 122.354 62.8 122.066 62.656C121.346 62.896 120.53 62.656 119.954 62.032C119.714 62.368 119.33 62.56 118.946 62.56C119.042 62.8 118.85 63.232 118.562 63.28C118.514 62.56 118.226 62.32 118.13 62.224C117.218 61.504 117.554 59.44 117.026 58.624C116.306 57.472 115.202 57.232 114.578 57.712C115.106 57.808 115.154 58.24 114.818 58.48L114.674 58.432C114.722 58.48 114.722 58.528 114.722 58.576C114.866 59.104 114.818 59.584 114.626 59.968C114.77 60.064 115.058 60.16 115.394 60.112C114.962 60.544 114.53 60.592 114.146 60.4C113.762 60.592 113.33 60.544 112.898 60.112C113.234 60.16 113.522 60.064 113.666 59.968C113.474 59.584 113.426 59.104 113.57 58.576L113.618 58.432C113.57 58.432 113.522 58.48 113.474 58.48C113.138 58.24 113.186 57.808 113.714 57.712C113.09 57.232 111.986 57.472 111.266 58.624C110.738 59.44 111.074 61.504 110.162 62.224C110.066 62.32 109.778 62.56 109.73 63.28C109.442 63.232 109.25 62.8 109.346 62.56C108.914 62.56 108.53 62.368 108.29 61.984C107.714 62.656 106.85 62.896 106.13 62.656C105.842 62.8 105.554 62.704 105.218 62.464C104.786 63.136 103.922 62.176 102.77 62.56C103.106 61.744 103.778 61.504 104.402 61.696L104.21 61.456C103.442 61.408 103.394 60.928 102.77 61.12C103.01 60.688 103.202 60.496 103.538 60.64L103.394 60.448C102.914 60.688 102.818 60.112 102.626 59.728C103.298 59.872 103.442 59.968 103.394 60.304L103.586 60.448C103.49 60.208 103.586 59.968 103.97 59.632C103.634 60.256 104.402 60.64 104.45 61.312C104.69 61.6 104.978 61.84 105.218 62.032C105.122 61.936 105.026 61.792 104.978 61.648C104.498 60.688 104.834 58.72 103.97 58.768C103.778 57.808 102.242 58.24 103.106 59.392C102.578 59.392 102.194 59.008 102.146 58.48ZM102.146 3.856C102.53 2.464 103.778 1.888 104.786 2.224C105.074 2.08 105.362 2.17599 105.698 2.416C106.13 1.744 106.994 2.704 108.146 2.32C107.81 3.136 107.138 3.376 106.514 3.184L106.706 3.424C107.474 3.472 107.522 3.952 108.146 3.76C107.906 4.192 107.714 4.384 107.378 4.24L107.522 4.432C107.906 4.24 108.05 4.624 108.194 4.96C108.53 4.336 109.298 4.096 109.922 4.768C108.29 4.624 108.53 6.688 109.346 6.4C109.682 6.64 109.634 7.072 109.106 7.168C109.73 7.648 110.834 7.408 111.554 6.256C112.082 5.44 111.746 3.376 112.658 2.656C112.754 2.56 113.042 2.32 113.09 1.6C113.378 1.648 113.57 2.08 113.474 2.32C113.714 2.32 113.954 2.368 114.146 2.512C114.338 2.368 114.578 2.32 114.818 2.32C114.722 2.08 114.914 1.648 115.202 1.6C115.25 2.32 115.538 2.56 115.634 2.656C116.546 3.376 116.21 5.44 116.738 6.256C117.458 7.408 118.562 7.648 119.186 7.168C118.658 7.072 118.61 6.64 118.946 6.4C119.186 6.496 119.33 6.4 119.474 6.208C119.474 6.112 119.522 6.064 119.57 5.968C119.666 5.44 119.378 4.672 118.37 4.768C118.946 4.144 119.666 4.288 120.05 4.864C120.146 4.528 120.29 4.24 120.674 4.432L120.818 4.24C120.482 4.384 120.29 4.192 120.05 3.76C120.674 3.952 120.722 3.472 121.49 3.424L121.682 3.184C121.058 3.376 120.386 3.136 120.05 2.32C121.202 2.704 122.066 1.744 122.498 2.416C122.834 2.17599 123.122 2.08 123.41 2.224C124.418 1.888 125.666 2.464 126.05 3.856C126.098 4.096 126.146 4.336 126.146 4.528C126.53 4.288 127.058 4.288 127.49 4.768C125.858 4.624 126.098 6.688 126.914 6.4C127.25 6.64 127.202 7.072 126.674 7.168C127.298 7.648 128.402 7.408 129.122 6.256C129.65 5.44 129.314 3.376 130.226 2.656C130.322 2.56 130.61 2.32 130.658 1.6C130.946 1.648 131.138 2.08 131.042 2.32C131.378 2.32 131.666 2.464 131.906 2.656C132.146 2.464 132.434 2.32 132.77 2.32C132.674 2.08 132.866 1.648 133.154 1.6C133.202 2.32 133.49 2.56 133.586 2.656C134.498 3.376 134.162 5.44 134.69 6.256C135.41 7.408 136.514 7.648 137.138 7.168C136.61 7.072 136.562 6.64 136.898 6.4C137.714 6.688 137.954 4.624 136.322 4.768C137.282 3.76 138.578 4.816 138.146 6.304C137.762 7.696 136.514 8.272 135.506 7.936C135.218 8.08 134.93 7.984 134.594 7.744C134.162 8.416 133.298 7.456 132.146 7.84C132.482 7.024 133.154 6.784 133.778 6.976L133.586 6.736C132.818 6.688 132.77 6.208 132.146 6.4C132.386 5.968 132.578 5.776 132.914 5.92L132.77 5.728C132.29 5.968 132.194 5.392 132.002 5.008C132.674 5.152 132.818 5.248 132.77 5.584L132.962 5.728C132.866 5.488 132.962 5.248 133.346 4.912C133.01 5.536 133.778 5.92 133.826 6.592C134.066 6.88 134.354 7.12 134.594 7.312C134.498 7.216 134.402 7.072 134.354 6.928C133.874 5.968 134.21 4 133.346 4.048C133.202 3.424 132.53 3.376 132.29 3.76L132.242 4.048C132.242 4.24 132.29 4.432 132.482 4.672C132.242 4.672 132.05 4.624 131.906 4.48C131.762 4.624 131.57 4.672 131.33 4.672C131.522 4.432 131.57 4.24 131.57 4.048L131.522 3.76C131.282 3.376 130.61 3.424 130.466 4.048C129.602 4 129.938 5.968 129.458 6.928C129.41 7.072 129.314 7.216 129.218 7.312C129.458 7.12 129.746 6.88 129.986 6.592C130.034 5.92 130.802 5.536 130.466 4.912C130.85 5.248 130.946 5.488 130.85 5.728L131.042 5.584C130.994 5.248 131.138 5.152 131.81 5.008C131.618 5.392 131.522 5.968 131.042 5.728L130.898 5.92C131.234 5.776 131.426 5.968 131.666 6.4C131.042 6.208 130.994 6.688 130.226 6.736L130.034 6.976C130.658 6.784 131.33 7.024 131.666 7.84C130.514 7.456 129.65 8.416 129.218 7.744C128.882 7.984 128.594 8.08 128.306 7.936C127.298 8.272 126.05 7.696 125.666 6.304C125.618 6.064 125.57 5.824 125.57 5.632C125.186 5.872 124.658 5.872 124.226 5.392C125.858 5.536 125.618 3.472 124.802 3.76C124.466 3.52 124.514 3.088 125.042 2.992C124.418 2.512 123.314 2.752 122.594 3.904C122.066 4.72 122.402 6.784 121.49 7.504C121.394 7.6 121.106 7.84 121.058 8.56C120.77 8.512 120.578 8.08 120.674 7.84C120.29 7.84 119.906 7.648 119.666 7.312C119.09 7.936 118.274 8.176 117.554 7.936C117.266 8.08 116.978 7.984 116.642 7.744C116.21 8.416 115.346 7.456 114.194 7.84C114.53 7.024 115.202 6.784 115.826 6.976L115.634 6.736C114.866 6.688 114.818 6.208 114.194 6.4C114.434 5.968 114.626 5.776 114.962 5.92L114.818 5.728C114.434 5.92 114.29 5.584 114.146 5.248C114.002 5.584 113.858 5.92 113.474 5.728L113.33 5.92C113.666 5.776 113.858 5.968 114.098 6.4C113.474 6.208 113.426 6.688 112.658 6.736L112.466 6.976C113.09 6.784 113.762 7.024 114.098 7.84C112.946 7.456 112.082 8.416 111.65 7.744C111.314 7.984 111.026 8.08 110.738 7.936C110.018 8.176 109.154 7.936 108.578 7.264C108.338 7.648 107.954 7.84 107.522 7.84C107.618 8.08 107.426 8.512 107.138 8.56C107.09 7.84 106.802 7.6 106.706 7.504C105.794 6.784 106.13 4.72 105.602 3.904C104.882 2.752 103.778 2.512 103.154 2.992C103.682 3.088 103.73 3.52 103.394 3.76C102.578 3.472 102.338 5.536 103.97 5.392C103.01 6.4 101.714 5.344 102.146 3.856ZM102.866 7.696C102.53 7.696 102.482 7.072 103.298 6.88C102.914 6.688 103.106 6.496 103.538 6.4C103.25 6.016 103.634 6.112 104.45 5.536C104.354 5.68 103.922 6.544 103.874 6.64C103.394 7.504 103.154 7.696 102.866 7.696ZM103.586 50.992C105.506 50.032 106.322 47.536 106.322 44.944V18.832C106.322 16.24 105.65 13.936 104.018 12.928C105.794 12.544 107.522 13.408 108.338 14.944C109.202 13.408 110.834 12.544 112.658 12.928C111.074 13.936 110.354 16.24 110.354 18.832V45.424C110.354 48.976 109.634 49.456 111.554 49.456C113.714 49.456 134.306 49.744 135.074 47.392C135.458 46.288 135.314 44.944 134.162 44.128C136.898 44.512 138.194 47.68 136.082 50.464C138.626 52.144 137.666 54.352 136.37 54.64C136.754 53.584 136.082 52.144 134.354 52.144C132.722 52.144 113.81 51.472 111.41 51.472C109.826 51.472 108.818 50.608 108.674 49.168C107.474 50.464 105.602 51.184 103.586 50.992ZM103.634 7.744C104.69 6.736 104.21 5.344 105.218 5.344C105.89 6.496 105.218 7.984 103.634 7.744ZM105.698 59.536C105.026 58.384 105.698 56.896 107.282 57.136C106.226 58.144 106.706 59.536 105.698 59.536ZM105.698 2.848C105.794 2.944 105.89 3.088 105.938 3.232C106.418 4.192 106.082 6.16 106.946 6.112C107.09 6.832 108.002 6.784 108.05 6.208L108.002 5.872C107.954 5.728 107.906 5.632 107.81 5.488H108.002C108.05 5.392 108.098 5.248 108.146 5.104C107.618 5.008 107.474 4.864 107.522 4.576L107.33 4.432C107.426 4.672 107.33 4.912 106.946 5.248C107.282 4.624 106.514 4.24 106.466 3.568C106.226 3.27999 105.938 3.04 105.698 2.848ZM106.466 59.344C106.562 59.2 106.994 58.336 107.042 58.24C107.522 57.376 107.762 57.184 108.05 57.184C108.386 57.184 108.434 57.808 107.618 58C108.002 58.192 107.81 58.384 107.378 58.48C107.666 58.864 107.282 58.768 106.466 59.344ZM108.722 59.824C108.77 59.968 108.818 60.112 108.866 60.208H109.058C108.962 60.352 108.914 60.448 108.866 60.592L108.818 60.928C108.866 61.504 109.778 61.552 109.922 60.832C110.786 60.88 110.45 58.912 110.93 57.952C110.978 57.808 111.074 57.664 111.17 57.568C110.93 57.76 110.642 58 110.402 58.288C110.354 58.96 109.586 59.344 109.922 59.968C109.538 59.632 109.442 59.392 109.538 59.152L109.346 59.296C109.394 59.584 109.25 59.728 108.722 59.824ZM108.818 2.464C109.106 2.464 109.346 2.656 109.826 3.52C109.874 3.616 110.306 4.48 110.402 4.624C109.586 4.048 109.202 4.144 109.49 3.76C109.058 3.664 108.866 3.472 109.25 3.27999C108.434 3.088 108.482 2.464 108.818 2.464ZM109.586 2.416C111.17 2.17599 111.842 3.664 111.17 4.816C110.162 4.816 110.642 3.424 109.586 2.416ZM111.65 60.064C112.658 60.064 112.178 61.456 113.234 62.464C111.65 62.704 110.978 61.216 111.65 60.064ZM111.65 7.312C111.89 7.12 112.178 6.88 112.418 6.592C112.466 5.92 113.234 5.536 112.898 4.912C113.282 5.248 113.378 5.488 113.282 5.728L113.474 5.584C113.426 5.296 113.522 5.152 114.05 5.056V5.008C114.098 5.008 114.098 5.008 114.146 5.008H114.242V5.056C114.77 5.152 114.866 5.296 114.818 5.584L115.01 5.728C114.914 5.488 115.01 5.248 115.394 4.912C115.058 5.536 115.826 5.92 115.874 6.592C116.114 6.88 116.402 7.12 116.642 7.312C116.546 7.216 116.45 7.072 116.402 6.928C115.922 5.968 116.258 4 115.394 4.048C115.298 3.664 115.01 3.472 114.722 3.52V3.76C114.674 4.048 114.578 4.288 114.386 4.432L114.53 4.672C114.386 4.672 114.242 4.624 114.146 4.576C114.05 4.624 113.906 4.672 113.762 4.672L113.906 4.432C113.714 4.288 113.618 4.048 113.57 3.76V3.52C113.282 3.472 112.994 3.664 112.898 4.048C112.034 4 112.37 5.968 111.89 6.928C111.842 7.072 111.746 7.216 111.65 7.312ZM112.418 60.256C113.234 60.832 113.618 60.736 113.33 61.12C113.762 61.216 113.954 61.408 113.57 61.6C113.858 61.648 114.05 61.792 114.146 61.936C114.242 61.792 114.434 61.648 114.722 61.6C114.338 61.408 114.53 61.216 114.962 61.12C114.674 60.736 115.058 60.832 115.874 60.256C115.778 60.4 115.346 61.264 115.298 61.36C114.818 62.224 114.578 62.416 114.29 62.416C114.242 62.416 114.194 62.416 114.146 62.368C114.098 62.416 114.05 62.416 114.002 62.416C113.714 62.416 113.474 62.224 112.994 61.36C112.946 61.264 112.514 60.4 112.418 60.256ZM115.058 62.464C116.114 61.456 115.634 60.064 116.642 60.064C117.314 61.216 116.642 62.704 115.058 62.464ZM117.122 57.568C117.218 57.664 117.314 57.808 117.362 57.952C117.842 58.912 117.506 60.88 118.37 60.832C118.514 61.456 119.234 61.504 119.426 61.072V61.024C119.378 60.784 119.33 60.592 119.33 60.352L119.234 60.208C119.282 60.208 119.33 60.208 119.378 60.208C119.378 60.064 119.426 59.92 119.474 59.824C118.994 59.68 118.898 59.584 118.946 59.296L118.754 59.152C118.85 59.392 118.754 59.632 118.37 59.968C118.706 59.344 117.938 58.96 117.89 58.288C117.65 58 117.362 57.76 117.122 57.568ZM117.122 4.816C116.45 3.664 117.122 2.17599 118.706 2.416C117.65 3.424 118.13 4.816 117.122 4.816ZM117.89 4.624C117.986 4.48 118.418 3.616 118.466 3.52C118.946 2.656 119.186 2.464 119.474 2.464C119.81 2.464 119.858 3.088 119.042 3.27999C119.426 3.472 119.234 3.664 118.802 3.76C119.09 4.144 118.706 4.048 117.89 4.624ZM120.146 57.184C120.434 57.184 120.674 57.376 121.154 58.24C121.202 58.336 121.634 59.2 121.73 59.344C120.914 58.768 120.53 58.864 120.818 58.48C120.386 58.384 120.194 58.192 120.578 58C119.762 57.808 119.81 57.184 120.146 57.184ZM120.146 5.104C120.194 5.2 120.242 5.344 120.242 5.488H120.386C120.338 5.536 120.29 5.584 120.29 5.632C120.29 5.872 120.242 6.064 120.194 6.304V6.352C120.386 6.784 121.106 6.736 121.25 6.112C122.114 6.16 121.778 4.192 122.258 3.232C122.306 3.088 122.402 2.944 122.498 2.848C122.258 3.04 121.97 3.27999 121.73 3.568C121.682 4.24 120.914 4.624 121.25 5.248C120.866 4.912 120.77 4.672 120.866 4.432L120.674 4.576C120.722 4.864 120.626 4.96 120.146 5.104ZM120.914 57.136C122.498 56.896 123.17 58.384 122.498 59.536C121.49 59.536 121.97 58.144 120.914 57.136ZM122.978 5.344C123.986 5.344 123.506 6.736 124.562 7.744C122.978 7.984 122.306 6.496 122.978 5.344ZM123.746 5.536C124.562 6.112 124.946 6.016 124.658 6.4C125.09 6.496 125.282 6.688 124.898 6.88C125.714 7.072 125.666 7.696 125.33 7.696C125.042 7.696 124.802 7.504 124.322 6.64C124.274 6.544 123.842 5.68 123.746 5.536ZM125.666 61.12C125.714 60.592 126.098 60.208 126.626 60.208C125.762 61.36 127.298 61.792 127.49 60.832C128.354 60.88 128.018 58.912 128.498 57.952C128.546 57.808 128.642 57.664 128.738 57.568C128.498 57.76 128.21 58 127.97 58.288C127.922 58.96 127.154 59.344 127.49 59.968C127.106 59.632 127.01 59.392 127.106 59.152L126.914 59.296C126.962 59.632 126.818 59.728 126.146 59.872C126.338 59.488 126.434 58.912 126.914 59.152L127.058 58.96C126.722 59.104 126.53 58.912 126.29 58.48C126.914 58.672 126.962 58.192 127.73 58.144L127.922 57.904C127.298 58.096 126.626 57.856 126.29 57.04C127.442 57.424 128.306 56.464 128.738 57.136C129.074 56.896 129.362 56.8 129.65 56.944C130.418 56.704 131.33 56.992 131.906 57.76C132.482 56.992 133.394 56.704 134.162 56.944C134.45 56.8 134.738 56.896 135.074 57.136C135.506 56.464 136.37 57.424 137.522 57.04C137.186 57.856 136.514 58.096 135.89 57.904L136.082 58.144C136.85 58.192 136.898 58.672 137.522 58.48C137.282 58.912 137.09 59.104 136.754 58.96L136.898 59.152C137.378 58.912 137.474 59.488 137.666 59.872C136.994 59.728 136.85 59.632 136.898 59.296L136.706 59.152C136.802 59.392 136.706 59.632 136.322 59.968C136.658 59.344 135.89 58.96 135.842 58.288C135.602 58 135.314 57.76 135.074 57.568C135.17 57.664 135.266 57.808 135.314 57.952C135.794 58.912 135.458 60.88 136.322 60.832C136.514 61.792 138.05 61.36 137.186 60.208C137.714 60.208 138.098 60.592 138.146 61.12C138.194 62.032 137.57 62.56 136.898 62.56C136.994 62.8 136.802 63.232 136.514 63.28C136.466 62.56 136.178 62.32 136.082 62.224C135.17 61.504 135.506 59.44 134.978 58.624C134.258 57.472 133.154 57.232 132.53 57.712C133.058 57.808 133.106 58.24 132.77 58.48C132.578 58.432 132.434 58.48 132.29 58.624C132.434 59.008 132.386 59.392 132.29 59.68C132.482 59.968 132.818 60.16 133.346 60.112C132.866 60.64 132.29 60.592 131.906 60.256C131.522 60.592 130.946 60.64 130.466 60.112C130.994 60.16 131.33 59.968 131.522 59.68C131.426 59.392 131.378 59.008 131.522 58.624C131.378 58.48 131.234 58.432 131.042 58.48C130.706 58.24 130.754 57.808 131.282 57.712C130.658 57.232 129.554 57.472 128.834 58.624C128.306 59.44 128.642 61.504 127.73 62.224C127.634 62.32 127.346 62.56 127.298 63.28C127.01 63.232 126.818 62.8 126.914 62.56C126.242 62.56 125.618 62.032 125.666 61.12ZM126.386 2.464C126.674 2.464 126.914 2.656 127.394 3.52C127.442 3.616 127.874 4.48 127.97 4.624C127.154 4.048 126.77 4.144 127.058 3.76C126.626 3.664 126.434 3.472 126.818 3.27999C126.002 3.088 126.05 2.464 126.386 2.464ZM127.154 2.416C128.738 2.17599 129.41 3.664 128.738 4.816C127.73 4.816 128.21 3.424 127.154 2.416ZM129.218 60.064C130.226 60.064 129.746 61.456 130.802 62.464C129.218 62.704 128.546 61.216 129.218 60.064ZM129.986 60.256C130.802 60.832 131.186 60.736 130.898 61.12C131.33 61.216 131.522 61.408 131.138 61.6C131.954 61.792 131.906 62.416 131.57 62.416C131.282 62.416 131.042 62.224 130.562 61.36C130.514 61.264 130.082 60.4 129.986 60.256ZM132.242 62.416C131.906 62.416 131.858 61.792 132.674 61.6C132.29 61.408 132.482 61.216 132.914 61.12C132.626 60.736 133.01 60.832 133.826 60.256C133.73 60.4 133.298 61.264 133.25 61.36C132.77 62.224 132.53 62.416 132.242 62.416ZM133.01 62.464C134.066 61.456 133.586 60.064 134.594 60.064C135.266 61.216 134.594 62.704 133.01 62.464ZM135.074 4.816C134.402 3.664 135.074 2.17599 136.658 2.416C135.602 3.424 136.082 4.816 135.074 4.816ZM135.842 4.624C135.938 4.48 136.37 3.616 136.418 3.52C136.898 2.656 137.138 2.464 137.426 2.464C137.762 2.464 137.81 3.088 136.994 3.27999C137.378 3.472 137.186 3.664 136.754 3.76C137.042 4.144 136.658 4.048 135.842 4.624Z" fill="black"/>
</svg>
